%TF.GenerationSoftware,KiCad,Pcbnew,9.0.7*%
%TF.CreationDate,2026-07-18T01:20:12+05:30*%
%TF.ProjectId,NE555_LED_Flasher,4e453535-355f-44c4-9544-5f466c617368,rev?*%
%TF.SameCoordinates,Original*%
%TF.FileFunction,Legend,Top*%
%TF.FilePolarity,Positive*%
%FSLAX46Y46*%
G04 Gerber Fmt 4.6, Leading zero omitted, Abs format (unit mm)*
G04 Created by KiCad (PCBNEW 9.0.7) date 2026-07-18 01:20:12*
%MOMM*%
%LPD*%
G01*
G04 APERTURE LIST*
G04 Aperture macros list*
%AMRoundRect*
0 Rectangle with rounded corners*
0 $1 Rounding radius*
0 $2 $3 $4 $5 $6 $7 $8 $9 X,Y pos of 4 corners*
0 Add a 4 corners polygon primitive as box body*
4,1,4,$2,$3,$4,$5,$6,$7,$8,$9,$2,$3,0*
0 Add four circle primitives for the rounded corners*
1,1,$1+$1,$2,$3*
1,1,$1+$1,$4,$5*
1,1,$1+$1,$6,$7*
1,1,$1+$1,$8,$9*
0 Add four rect primitives between the rounded corners*
20,1,$1+$1,$2,$3,$4,$5,0*
20,1,$1+$1,$4,$5,$6,$7,0*
20,1,$1+$1,$6,$7,$8,$9,0*
20,1,$1+$1,$8,$9,$2,$3,0*%
G04 Aperture macros list end*
%ADD10C,0.125000*%
%ADD11C,0.150000*%
%ADD12C,0.120000*%
%TA.AperFunction,ComponentPad*%
%ADD13RoundRect,0.250000X0.550000X0.550000X-0.550000X0.550000X-0.550000X-0.550000X0.550000X-0.550000X0*%
%TD*%
%TA.AperFunction,ComponentPad*%
%ADD14C,1.600000*%
%TD*%
%TA.AperFunction,ComponentPad*%
%ADD15R,1.700000X1.700000*%
%TD*%
%TA.AperFunction,ComponentPad*%
%ADD16C,1.700000*%
%TD*%
%TA.AperFunction,ViaPad*%
%ADD17C,0.600000*%
%TD*%
%TA.AperFunction,Conductor*%
%ADD18C,0.400000*%
%TD*%
%ADD19RoundRect,0.250000X0.550000X0.550000X-0.550000X0.550000X-0.550000X-0.550000X0.550000X-0.550000X0*%
%ADD20C,1.600000*%
%ADD21R,1.700000X1.700000*%
%ADD22C,1.700000*%
%TA.AperFunction,SMDPad,CuDef*%
%ADD23RoundRect,0.250000X-0.450000X0.262500X-0.450000X-0.262500X0.450000X-0.262500X0.450000X0.262500X0*%
%TD*%
%TA.AperFunction,SMDPad,CuDef*%
%ADD24RoundRect,0.243750X0.456250X-0.243750X0.456250X0.243750X-0.456250X0.243750X-0.456250X-0.243750X0*%
%TD*%
%TA.AperFunction,SMDPad,CuDef*%
%ADD25RoundRect,0.250000X-0.475000X0.250000X-0.475000X-0.250000X0.475000X-0.250000X0.475000X0.250000X0*%
%TD*%
%TA.AperFunction,SMDPad,CuDef*%
%ADD26RoundRect,0.250000X-1.100000X0.325000X-1.100000X-0.325000X1.100000X-0.325000X1.100000X0.325000X0*%
%TD*%
%TA.AperFunction,SMDPad,CuDef*%
%ADD27RoundRect,0.250000X-0.262500X-0.450000X0.262500X-0.450000X0.262500X0.450000X-0.262500X0.450000X0*%
%TD*%
%TA.AperFunction,SMDPad,CuDef*%
%ADD28RoundRect,0.250000X-0.250000X-0.475000X0.250000X-0.475000X0.250000X0.475000X-0.250000X0.475000X0*%
%TD*%
%ADD29RoundRect,0.250000X-0.450000X0.262500X-0.450000X-0.262500X0.450000X-0.262500X0.450000X0.262500X0*%
%ADD30RoundRect,0.243750X0.456250X-0.243750X0.456250X0.243750X-0.456250X0.243750X-0.456250X-0.243750X0*%
%ADD31RoundRect,0.250000X-0.475000X0.250000X-0.475000X-0.250000X0.475000X-0.250000X0.475000X0.250000X0*%
%ADD32RoundRect,0.250000X-1.100000X0.325000X-1.100000X-0.325000X1.100000X-0.325000X1.100000X0.325000X0*%
%ADD33RoundRect,0.250000X-0.262500X-0.450000X0.262500X-0.450000X0.262500X0.450000X-0.262500X0.450000X0*%
%ADD34RoundRect,0.250000X-0.250000X-0.475000X0.250000X-0.475000X0.250000X0.475000X-0.250000X0.475000X0*%
%ADD35C,0.050000*%
%ADD36C,0.080000*%
%ADD37C,0.100000*%
G04 APERTURE END LIST*
D10*
X143965283Y-53689730D02*
X143965283Y-52889730D01*
X143965283Y-52889730D02*
X144250997Y-53689730D01*
X144250997Y-53689730D02*
X144250997Y-52889730D01*
X144489093Y-53270682D02*
X144655760Y-53270682D01*
X144727188Y-53689730D02*
X144489093Y-53689730D01*
X144489093Y-53689730D02*
X144489093Y-52889730D01*
X144489093Y-52889730D02*
X144727188Y-52889730D01*
X145179569Y-52889730D02*
X144941474Y-52889730D01*
X144941474Y-52889730D02*
X144917665Y-53270682D01*
X144917665Y-53270682D02*
X144941474Y-53232587D01*
X144941474Y-53232587D02*
X144989093Y-53194492D01*
X144989093Y-53194492D02*
X145108141Y-53194492D01*
X145108141Y-53194492D02*
X145155760Y-53232587D01*
X145155760Y-53232587D02*
X145179569Y-53270682D01*
X145179569Y-53270682D02*
X145203379Y-53346873D01*
X145203379Y-53346873D02*
X145203379Y-53537349D01*
X145203379Y-53537349D02*
X145179569Y-53613539D01*
X145179569Y-53613539D02*
X145155760Y-53651635D01*
X145155760Y-53651635D02*
X145108141Y-53689730D01*
X145108141Y-53689730D02*
X144989093Y-53689730D01*
X144989093Y-53689730D02*
X144941474Y-53651635D01*
X144941474Y-53651635D02*
X144917665Y-53613539D01*
X145655759Y-52889730D02*
X145417664Y-52889730D01*
X145417664Y-52889730D02*
X145393855Y-53270682D01*
X145393855Y-53270682D02*
X145417664Y-53232587D01*
X145417664Y-53232587D02*
X145465283Y-53194492D01*
X145465283Y-53194492D02*
X145584331Y-53194492D01*
X145584331Y-53194492D02*
X145631950Y-53232587D01*
X145631950Y-53232587D02*
X145655759Y-53270682D01*
X145655759Y-53270682D02*
X145679569Y-53346873D01*
X145679569Y-53346873D02*
X145679569Y-53537349D01*
X145679569Y-53537349D02*
X145655759Y-53613539D01*
X145655759Y-53613539D02*
X145631950Y-53651635D01*
X145631950Y-53651635D02*
X145584331Y-53689730D01*
X145584331Y-53689730D02*
X145465283Y-53689730D01*
X145465283Y-53689730D02*
X145417664Y-53651635D01*
X145417664Y-53651635D02*
X145393855Y-53613539D01*
X146131949Y-52889730D02*
X145893854Y-52889730D01*
X145893854Y-52889730D02*
X145870045Y-53270682D01*
X145870045Y-53270682D02*
X145893854Y-53232587D01*
X145893854Y-53232587D02*
X145941473Y-53194492D01*
X145941473Y-53194492D02*
X146060521Y-53194492D01*
X146060521Y-53194492D02*
X146108140Y-53232587D01*
X146108140Y-53232587D02*
X146131949Y-53270682D01*
X146131949Y-53270682D02*
X146155759Y-53346873D01*
X146155759Y-53346873D02*
X146155759Y-53537349D01*
X146155759Y-53537349D02*
X146131949Y-53613539D01*
X146131949Y-53613539D02*
X146108140Y-53651635D01*
X146108140Y-53651635D02*
X146060521Y-53689730D01*
X146060521Y-53689730D02*
X145941473Y-53689730D01*
X145941473Y-53689730D02*
X145893854Y-53651635D01*
X145893854Y-53651635D02*
X145870045Y-53613539D01*
X146989091Y-53689730D02*
X146750996Y-53689730D01*
X146750996Y-53689730D02*
X146750996Y-52889730D01*
X147155758Y-53270682D02*
X147322425Y-53270682D01*
X147393853Y-53689730D02*
X147155758Y-53689730D01*
X147155758Y-53689730D02*
X147155758Y-52889730D01*
X147155758Y-52889730D02*
X147393853Y-52889730D01*
X147608139Y-53689730D02*
X147608139Y-52889730D01*
X147608139Y-52889730D02*
X147727187Y-52889730D01*
X147727187Y-52889730D02*
X147798615Y-52927825D01*
X147798615Y-52927825D02*
X147846234Y-53004015D01*
X147846234Y-53004015D02*
X147870044Y-53080206D01*
X147870044Y-53080206D02*
X147893853Y-53232587D01*
X147893853Y-53232587D02*
X147893853Y-53346873D01*
X147893853Y-53346873D02*
X147870044Y-53499254D01*
X147870044Y-53499254D02*
X147846234Y-53575444D01*
X147846234Y-53575444D02*
X147798615Y-53651635D01*
X147798615Y-53651635D02*
X147727187Y-53689730D01*
X147727187Y-53689730D02*
X147608139Y-53689730D01*
X148655758Y-53270682D02*
X148489091Y-53270682D01*
X148489091Y-53689730D02*
X148489091Y-52889730D01*
X148489091Y-52889730D02*
X148727186Y-52889730D01*
X148989091Y-53689730D02*
X148941472Y-53651635D01*
X148941472Y-53651635D02*
X148917662Y-53575444D01*
X148917662Y-53575444D02*
X148917662Y-52889730D01*
X149393853Y-53689730D02*
X149393853Y-53270682D01*
X149393853Y-53270682D02*
X149370043Y-53194492D01*
X149370043Y-53194492D02*
X149322424Y-53156396D01*
X149322424Y-53156396D02*
X149227186Y-53156396D01*
X149227186Y-53156396D02*
X149179567Y-53194492D01*
X149393853Y-53651635D02*
X149346234Y-53689730D01*
X149346234Y-53689730D02*
X149227186Y-53689730D01*
X149227186Y-53689730D02*
X149179567Y-53651635D01*
X149179567Y-53651635D02*
X149155758Y-53575444D01*
X149155758Y-53575444D02*
X149155758Y-53499254D01*
X149155758Y-53499254D02*
X149179567Y-53423063D01*
X149179567Y-53423063D02*
X149227186Y-53384968D01*
X149227186Y-53384968D02*
X149346234Y-53384968D01*
X149346234Y-53384968D02*
X149393853Y-53346873D01*
X149608139Y-53651635D02*
X149655758Y-53689730D01*
X149655758Y-53689730D02*
X149750996Y-53689730D01*
X149750996Y-53689730D02*
X149798615Y-53651635D01*
X149798615Y-53651635D02*
X149822424Y-53575444D01*
X149822424Y-53575444D02*
X149822424Y-53537349D01*
X149822424Y-53537349D02*
X149798615Y-53461158D01*
X149798615Y-53461158D02*
X149750996Y-53423063D01*
X149750996Y-53423063D02*
X149679567Y-53423063D01*
X149679567Y-53423063D02*
X149631948Y-53384968D01*
X149631948Y-53384968D02*
X149608139Y-53308777D01*
X149608139Y-53308777D02*
X149608139Y-53270682D01*
X149608139Y-53270682D02*
X149631948Y-53194492D01*
X149631948Y-53194492D02*
X149679567Y-53156396D01*
X149679567Y-53156396D02*
X149750996Y-53156396D01*
X149750996Y-53156396D02*
X149798615Y-53194492D01*
X150036710Y-53689730D02*
X150036710Y-52889730D01*
X150250996Y-53689730D02*
X150250996Y-53270682D01*
X150250996Y-53270682D02*
X150227186Y-53194492D01*
X150227186Y-53194492D02*
X150179567Y-53156396D01*
X150179567Y-53156396D02*
X150108139Y-53156396D01*
X150108139Y-53156396D02*
X150060520Y-53194492D01*
X150060520Y-53194492D02*
X150036710Y-53232587D01*
X150679567Y-53651635D02*
X150631948Y-53689730D01*
X150631948Y-53689730D02*
X150536710Y-53689730D01*
X150536710Y-53689730D02*
X150489091Y-53651635D01*
X150489091Y-53651635D02*
X150465282Y-53575444D01*
X150465282Y-53575444D02*
X150465282Y-53270682D01*
X150465282Y-53270682D02*
X150489091Y-53194492D01*
X150489091Y-53194492D02*
X150536710Y-53156396D01*
X150536710Y-53156396D02*
X150631948Y-53156396D01*
X150631948Y-53156396D02*
X150679567Y-53194492D01*
X150679567Y-53194492D02*
X150703377Y-53270682D01*
X150703377Y-53270682D02*
X150703377Y-53346873D01*
X150703377Y-53346873D02*
X150465282Y-53423063D01*
X150917662Y-53689730D02*
X150917662Y-53156396D01*
X150917662Y-53308777D02*
X150941472Y-53232587D01*
X150941472Y-53232587D02*
X150965281Y-53194492D01*
X150965281Y-53194492D02*
X151012900Y-53156396D01*
X151012900Y-53156396D02*
X151060519Y-53156396D01*
X144250997Y-54977685D02*
X144084331Y-54596732D01*
X143965283Y-54977685D02*
X143965283Y-54177685D01*
X143965283Y-54177685D02*
X144155759Y-54177685D01*
X144155759Y-54177685D02*
X144203378Y-54215780D01*
X144203378Y-54215780D02*
X144227188Y-54253875D01*
X144227188Y-54253875D02*
X144250997Y-54330066D01*
X144250997Y-54330066D02*
X144250997Y-54444351D01*
X144250997Y-54444351D02*
X144227188Y-54520542D01*
X144227188Y-54520542D02*
X144203378Y-54558637D01*
X144203378Y-54558637D02*
X144155759Y-54596732D01*
X144155759Y-54596732D02*
X143965283Y-54596732D01*
X144655759Y-54939590D02*
X144608140Y-54977685D01*
X144608140Y-54977685D02*
X144512902Y-54977685D01*
X144512902Y-54977685D02*
X144465283Y-54939590D01*
X144465283Y-54939590D02*
X144441474Y-54863399D01*
X144441474Y-54863399D02*
X144441474Y-54558637D01*
X144441474Y-54558637D02*
X144465283Y-54482447D01*
X144465283Y-54482447D02*
X144512902Y-54444351D01*
X144512902Y-54444351D02*
X144608140Y-54444351D01*
X144608140Y-54444351D02*
X144655759Y-54482447D01*
X144655759Y-54482447D02*
X144679569Y-54558637D01*
X144679569Y-54558637D02*
X144679569Y-54634828D01*
X144679569Y-54634828D02*
X144441474Y-54711018D01*
X144846235Y-54444351D02*
X144965283Y-54977685D01*
X144965283Y-54977685D02*
X145084330Y-54444351D01*
X145917663Y-54977685D02*
X145631949Y-54977685D01*
X145774806Y-54977685D02*
X145774806Y-54177685D01*
X145774806Y-54177685D02*
X145727187Y-54291970D01*
X145727187Y-54291970D02*
X145679568Y-54368161D01*
X145679568Y-54368161D02*
X145631949Y-54406256D01*
X146131948Y-54901494D02*
X146155758Y-54939590D01*
X146155758Y-54939590D02*
X146131948Y-54977685D01*
X146131948Y-54977685D02*
X146108139Y-54939590D01*
X146108139Y-54939590D02*
X146131948Y-54901494D01*
X146131948Y-54901494D02*
X146131948Y-54977685D01*
X146465281Y-54177685D02*
X146512900Y-54177685D01*
X146512900Y-54177685D02*
X146560519Y-54215780D01*
X146560519Y-54215780D02*
X146584329Y-54253875D01*
X146584329Y-54253875D02*
X146608138Y-54330066D01*
X146608138Y-54330066D02*
X146631948Y-54482447D01*
X146631948Y-54482447D02*
X146631948Y-54672923D01*
X146631948Y-54672923D02*
X146608138Y-54825304D01*
X146608138Y-54825304D02*
X146584329Y-54901494D01*
X146584329Y-54901494D02*
X146560519Y-54939590D01*
X146560519Y-54939590D02*
X146512900Y-54977685D01*
X146512900Y-54977685D02*
X146465281Y-54977685D01*
X146465281Y-54977685D02*
X146417662Y-54939590D01*
X146417662Y-54939590D02*
X146393853Y-54901494D01*
X146393853Y-54901494D02*
X146370043Y-54825304D01*
X146370043Y-54825304D02*
X146346234Y-54672923D01*
X146346234Y-54672923D02*
X146346234Y-54482447D01*
X146346234Y-54482447D02*
X146370043Y-54330066D01*
X146370043Y-54330066D02*
X146393853Y-54253875D01*
X146393853Y-54253875D02*
X146417662Y-54215780D01*
X146417662Y-54215780D02*
X146465281Y-54177685D01*
X144250997Y-56265640D02*
X144084331Y-55884687D01*
X143965283Y-56265640D02*
X143965283Y-55465640D01*
X143965283Y-55465640D02*
X144155759Y-55465640D01*
X144155759Y-55465640D02*
X144203378Y-55503735D01*
X144203378Y-55503735D02*
X144227188Y-55541830D01*
X144227188Y-55541830D02*
X144250997Y-55618021D01*
X144250997Y-55618021D02*
X144250997Y-55732306D01*
X144250997Y-55732306D02*
X144227188Y-55808497D01*
X144227188Y-55808497D02*
X144203378Y-55846592D01*
X144203378Y-55846592D02*
X144155759Y-55884687D01*
X144155759Y-55884687D02*
X143965283Y-55884687D01*
X144465283Y-56189449D02*
X144489093Y-56227545D01*
X144489093Y-56227545D02*
X144465283Y-56265640D01*
X144465283Y-56265640D02*
X144441474Y-56227545D01*
X144441474Y-56227545D02*
X144465283Y-56189449D01*
X144465283Y-56189449D02*
X144465283Y-56265640D01*
X145084330Y-56265640D02*
X145084330Y-55465640D01*
X145084330Y-55465640D02*
X145250997Y-56037068D01*
X145250997Y-56037068D02*
X145417663Y-55465640D01*
X145417663Y-55465640D02*
X145417663Y-56265640D01*
X145846235Y-56227545D02*
X145798616Y-56265640D01*
X145798616Y-56265640D02*
X145703378Y-56265640D01*
X145703378Y-56265640D02*
X145655759Y-56227545D01*
X145655759Y-56227545D02*
X145631950Y-56151354D01*
X145631950Y-56151354D02*
X145631950Y-55846592D01*
X145631950Y-55846592D02*
X145655759Y-55770402D01*
X145655759Y-55770402D02*
X145703378Y-55732306D01*
X145703378Y-55732306D02*
X145798616Y-55732306D01*
X145798616Y-55732306D02*
X145846235Y-55770402D01*
X145846235Y-55770402D02*
X145870045Y-55846592D01*
X145870045Y-55846592D02*
X145870045Y-55922783D01*
X145870045Y-55922783D02*
X145631950Y-55998973D01*
X146084330Y-55732306D02*
X146084330Y-56265640D01*
X146084330Y-55808497D02*
X146108140Y-55770402D01*
X146108140Y-55770402D02*
X146155759Y-55732306D01*
X146155759Y-55732306D02*
X146227187Y-55732306D01*
X146227187Y-55732306D02*
X146274806Y-55770402D01*
X146274806Y-55770402D02*
X146298616Y-55846592D01*
X146298616Y-55846592D02*
X146298616Y-56265640D01*
X146727187Y-56227545D02*
X146679568Y-56265640D01*
X146679568Y-56265640D02*
X146584330Y-56265640D01*
X146584330Y-56265640D02*
X146536711Y-56227545D01*
X146536711Y-56227545D02*
X146512902Y-56151354D01*
X146512902Y-56151354D02*
X146512902Y-55846592D01*
X146512902Y-55846592D02*
X146536711Y-55770402D01*
X146536711Y-55770402D02*
X146584330Y-55732306D01*
X146584330Y-55732306D02*
X146679568Y-55732306D01*
X146679568Y-55732306D02*
X146727187Y-55770402D01*
X146727187Y-55770402D02*
X146750997Y-55846592D01*
X146750997Y-55846592D02*
X146750997Y-55922783D01*
X146750997Y-55922783D02*
X146512902Y-55998973D01*
X146917663Y-55732306D02*
X147179568Y-55732306D01*
X147179568Y-55732306D02*
X146917663Y-56265640D01*
X146917663Y-56265640D02*
X147179568Y-56265640D01*
X147560520Y-56227545D02*
X147512901Y-56265640D01*
X147512901Y-56265640D02*
X147417663Y-56265640D01*
X147417663Y-56265640D02*
X147370044Y-56227545D01*
X147370044Y-56227545D02*
X147346235Y-56151354D01*
X147346235Y-56151354D02*
X147346235Y-55846592D01*
X147346235Y-55846592D02*
X147370044Y-55770402D01*
X147370044Y-55770402D02*
X147417663Y-55732306D01*
X147417663Y-55732306D02*
X147512901Y-55732306D01*
X147512901Y-55732306D02*
X147560520Y-55770402D01*
X147560520Y-55770402D02*
X147584330Y-55846592D01*
X147584330Y-55846592D02*
X147584330Y-55922783D01*
X147584330Y-55922783D02*
X147346235Y-55998973D01*
X147774806Y-56227545D02*
X147822425Y-56265640D01*
X147822425Y-56265640D02*
X147917663Y-56265640D01*
X147917663Y-56265640D02*
X147965282Y-56227545D01*
X147965282Y-56227545D02*
X147989091Y-56151354D01*
X147989091Y-56151354D02*
X147989091Y-56113259D01*
X147989091Y-56113259D02*
X147965282Y-56037068D01*
X147965282Y-56037068D02*
X147917663Y-55998973D01*
X147917663Y-55998973D02*
X147846234Y-55998973D01*
X147846234Y-55998973D02*
X147798615Y-55960878D01*
X147798615Y-55960878D02*
X147774806Y-55884687D01*
X147774806Y-55884687D02*
X147774806Y-55846592D01*
X147774806Y-55846592D02*
X147798615Y-55770402D01*
X147798615Y-55770402D02*
X147846234Y-55732306D01*
X147846234Y-55732306D02*
X147917663Y-55732306D01*
X147917663Y-55732306D02*
X147965282Y-55770402D01*
X143941474Y-56829785D02*
X143965283Y-56791690D01*
X143965283Y-56791690D02*
X144012902Y-56753595D01*
X144012902Y-56753595D02*
X144131950Y-56753595D01*
X144131950Y-56753595D02*
X144179569Y-56791690D01*
X144179569Y-56791690D02*
X144203378Y-56829785D01*
X144203378Y-56829785D02*
X144227188Y-56905976D01*
X144227188Y-56905976D02*
X144227188Y-56982166D01*
X144227188Y-56982166D02*
X144203378Y-57096452D01*
X144203378Y-57096452D02*
X143917664Y-57553595D01*
X143917664Y-57553595D02*
X144227188Y-57553595D01*
X144536711Y-56753595D02*
X144584330Y-56753595D01*
X144584330Y-56753595D02*
X144631949Y-56791690D01*
X144631949Y-56791690D02*
X144655759Y-56829785D01*
X144655759Y-56829785D02*
X144679568Y-56905976D01*
X144679568Y-56905976D02*
X144703378Y-57058357D01*
X144703378Y-57058357D02*
X144703378Y-57248833D01*
X144703378Y-57248833D02*
X144679568Y-57401214D01*
X144679568Y-57401214D02*
X144655759Y-57477404D01*
X144655759Y-57477404D02*
X144631949Y-57515500D01*
X144631949Y-57515500D02*
X144584330Y-57553595D01*
X144584330Y-57553595D02*
X144536711Y-57553595D01*
X144536711Y-57553595D02*
X144489092Y-57515500D01*
X144489092Y-57515500D02*
X144465283Y-57477404D01*
X144465283Y-57477404D02*
X144441473Y-57401214D01*
X144441473Y-57401214D02*
X144417664Y-57248833D01*
X144417664Y-57248833D02*
X144417664Y-57058357D01*
X144417664Y-57058357D02*
X144441473Y-56905976D01*
X144441473Y-56905976D02*
X144465283Y-56829785D01*
X144465283Y-56829785D02*
X144489092Y-56791690D01*
X144489092Y-56791690D02*
X144536711Y-56753595D01*
X144893854Y-56829785D02*
X144917663Y-56791690D01*
X144917663Y-56791690D02*
X144965282Y-56753595D01*
X144965282Y-56753595D02*
X145084330Y-56753595D01*
X145084330Y-56753595D02*
X145131949Y-56791690D01*
X145131949Y-56791690D02*
X145155758Y-56829785D01*
X145155758Y-56829785D02*
X145179568Y-56905976D01*
X145179568Y-56905976D02*
X145179568Y-56982166D01*
X145179568Y-56982166D02*
X145155758Y-57096452D01*
X145155758Y-57096452D02*
X144870044Y-57553595D01*
X144870044Y-57553595D02*
X145179568Y-57553595D01*
X145608139Y-56753595D02*
X145512901Y-56753595D01*
X145512901Y-56753595D02*
X145465282Y-56791690D01*
X145465282Y-56791690D02*
X145441472Y-56829785D01*
X145441472Y-56829785D02*
X145393853Y-56944071D01*
X145393853Y-56944071D02*
X145370044Y-57096452D01*
X145370044Y-57096452D02*
X145370044Y-57401214D01*
X145370044Y-57401214D02*
X145393853Y-57477404D01*
X145393853Y-57477404D02*
X145417663Y-57515500D01*
X145417663Y-57515500D02*
X145465282Y-57553595D01*
X145465282Y-57553595D02*
X145560520Y-57553595D01*
X145560520Y-57553595D02*
X145608139Y-57515500D01*
X145608139Y-57515500D02*
X145631948Y-57477404D01*
X145631948Y-57477404D02*
X145655758Y-57401214D01*
X145655758Y-57401214D02*
X145655758Y-57210738D01*
X145655758Y-57210738D02*
X145631948Y-57134547D01*
X145631948Y-57134547D02*
X145608139Y-57096452D01*
X145608139Y-57096452D02*
X145560520Y-57058357D01*
X145560520Y-57058357D02*
X145465282Y-57058357D01*
X145465282Y-57058357D02*
X145417663Y-57096452D01*
X145417663Y-57096452D02*
X145393853Y-57134547D01*
X145393853Y-57134547D02*
X145370044Y-57210738D01*
D11*
X129889333Y-70954819D02*
X129556000Y-70478628D01*
X129317905Y-70954819D02*
X129317905Y-69954819D01*
X129317905Y-69954819D02*
X129698857Y-69954819D01*
X129698857Y-69954819D02*
X129794095Y-70002438D01*
X129794095Y-70002438D02*
X129841714Y-70050057D01*
X129841714Y-70050057D02*
X129889333Y-70145295D01*
X129889333Y-70145295D02*
X129889333Y-70288152D01*
X129889333Y-70288152D02*
X129841714Y-70383390D01*
X129841714Y-70383390D02*
X129794095Y-70431009D01*
X129794095Y-70431009D02*
X129698857Y-70478628D01*
X129698857Y-70478628D02*
X129317905Y-70478628D01*
X130651238Y-70431009D02*
X130794095Y-70478628D01*
X130794095Y-70478628D02*
X130841714Y-70526247D01*
X130841714Y-70526247D02*
X130889333Y-70621485D01*
X130889333Y-70621485D02*
X130889333Y-70764342D01*
X130889333Y-70764342D02*
X130841714Y-70859580D01*
X130841714Y-70859580D02*
X130794095Y-70907200D01*
X130794095Y-70907200D02*
X130698857Y-70954819D01*
X130698857Y-70954819D02*
X130317905Y-70954819D01*
X130317905Y-70954819D02*
X130317905Y-69954819D01*
X130317905Y-69954819D02*
X130651238Y-69954819D01*
X130651238Y-69954819D02*
X130746476Y-70002438D01*
X130746476Y-70002438D02*
X130794095Y-70050057D01*
X130794095Y-70050057D02*
X130841714Y-70145295D01*
X130841714Y-70145295D02*
X130841714Y-70240533D01*
X130841714Y-70240533D02*
X130794095Y-70335771D01*
X130794095Y-70335771D02*
X130746476Y-70383390D01*
X130746476Y-70383390D02*
X130651238Y-70431009D01*
X130651238Y-70431009D02*
X130317905Y-70431009D01*
X131841714Y-70954819D02*
X131270286Y-70954819D01*
X131556000Y-70954819D02*
X131556000Y-69954819D01*
X131556000Y-69954819D02*
X131460762Y-70097676D01*
X131460762Y-70097676D02*
X131365524Y-70192914D01*
X131365524Y-70192914D02*
X131270286Y-70240533D01*
X148761905Y-71828819D02*
X148761905Y-70828819D01*
X148761905Y-70828819D02*
X149000000Y-70828819D01*
X149000000Y-70828819D02*
X149142857Y-70876438D01*
X149142857Y-70876438D02*
X149238095Y-70971676D01*
X149238095Y-70971676D02*
X149285714Y-71066914D01*
X149285714Y-71066914D02*
X149333333Y-71257390D01*
X149333333Y-71257390D02*
X149333333Y-71400247D01*
X149333333Y-71400247D02*
X149285714Y-71590723D01*
X149285714Y-71590723D02*
X149238095Y-71685961D01*
X149238095Y-71685961D02*
X149142857Y-71781200D01*
X149142857Y-71781200D02*
X149000000Y-71828819D01*
X149000000Y-71828819D02*
X148761905Y-71828819D01*
X150285714Y-71828819D02*
X149714286Y-71828819D01*
X150000000Y-71828819D02*
X150000000Y-70828819D01*
X150000000Y-70828819D02*
X149904762Y-70971676D01*
X149904762Y-70971676D02*
X149809524Y-71066914D01*
X149809524Y-71066914D02*
X149714286Y-71114533D01*
X129960761Y-66954819D02*
X129627428Y-66478628D01*
X129389333Y-66954819D02*
X129389333Y-65954819D01*
X129389333Y-65954819D02*
X129770285Y-65954819D01*
X129770285Y-65954819D02*
X129865523Y-66002438D01*
X129865523Y-66002438D02*
X129913142Y-66050057D01*
X129913142Y-66050057D02*
X129960761Y-66145295D01*
X129960761Y-66145295D02*
X129960761Y-66288152D01*
X129960761Y-66288152D02*
X129913142Y-66383390D01*
X129913142Y-66383390D02*
X129865523Y-66431009D01*
X129865523Y-66431009D02*
X129770285Y-66478628D01*
X129770285Y-66478628D02*
X129389333Y-66478628D01*
X130341714Y-66669104D02*
X130817904Y-66669104D01*
X130246476Y-66954819D02*
X130579809Y-65954819D01*
X130579809Y-65954819D02*
X130913142Y-66954819D01*
X131770285Y-66954819D02*
X131198857Y-66954819D01*
X131484571Y-66954819D02*
X131484571Y-65954819D01*
X131484571Y-65954819D02*
X131389333Y-66097676D01*
X131389333Y-66097676D02*
X131294095Y-66192914D01*
X131294095Y-66192914D02*
X131198857Y-66240533D01*
X146333333Y-78359580D02*
X146285714Y-78407200D01*
X146285714Y-78407200D02*
X146142857Y-78454819D01*
X146142857Y-78454819D02*
X146047619Y-78454819D01*
X146047619Y-78454819D02*
X145904762Y-78407200D01*
X145904762Y-78407200D02*
X145809524Y-78311961D01*
X145809524Y-78311961D02*
X145761905Y-78216723D01*
X145761905Y-78216723D02*
X145714286Y-78026247D01*
X145714286Y-78026247D02*
X145714286Y-77883390D01*
X145714286Y-77883390D02*
X145761905Y-77692914D01*
X145761905Y-77692914D02*
X145809524Y-77597676D01*
X145809524Y-77597676D02*
X145904762Y-77502438D01*
X145904762Y-77502438D02*
X146047619Y-77454819D01*
X146047619Y-77454819D02*
X146142857Y-77454819D01*
X146142857Y-77454819D02*
X146285714Y-77502438D01*
X146285714Y-77502438D02*
X146333333Y-77550057D01*
X147285714Y-78454819D02*
X146714286Y-78454819D01*
X147000000Y-78454819D02*
X147000000Y-77454819D01*
X147000000Y-77454819D02*
X146904762Y-77597676D01*
X146904762Y-77597676D02*
X146809524Y-77692914D01*
X146809524Y-77692914D02*
X146714286Y-77740533D01*
X148359905Y-78432819D02*
X148359905Y-77432819D01*
X148359905Y-77432819D02*
X148598000Y-77432819D01*
X148598000Y-77432819D02*
X148740857Y-77480438D01*
X148740857Y-77480438D02*
X148836095Y-77575676D01*
X148836095Y-77575676D02*
X148883714Y-77670914D01*
X148883714Y-77670914D02*
X148931333Y-77861390D01*
X148931333Y-77861390D02*
X148931333Y-78004247D01*
X148931333Y-78004247D02*
X148883714Y-78194723D01*
X148883714Y-78194723D02*
X148836095Y-78289961D01*
X148836095Y-78289961D02*
X148740857Y-78385200D01*
X148740857Y-78385200D02*
X148598000Y-78432819D01*
X148598000Y-78432819D02*
X148359905Y-78432819D01*
X149312286Y-77528057D02*
X149359905Y-77480438D01*
X149359905Y-77480438D02*
X149455143Y-77432819D01*
X149455143Y-77432819D02*
X149693238Y-77432819D01*
X149693238Y-77432819D02*
X149788476Y-77480438D01*
X149788476Y-77480438D02*
X149836095Y-77528057D01*
X149836095Y-77528057D02*
X149883714Y-77623295D01*
X149883714Y-77623295D02*
X149883714Y-77718533D01*
X149883714Y-77718533D02*
X149836095Y-77861390D01*
X149836095Y-77861390D02*
X149264667Y-78432819D01*
X149264667Y-78432819D02*
X149883714Y-78432819D01*
X139233095Y-78702819D02*
X139233095Y-79512342D01*
X139233095Y-79512342D02*
X139280714Y-79607580D01*
X139280714Y-79607580D02*
X139328333Y-79655200D01*
X139328333Y-79655200D02*
X139423571Y-79702819D01*
X139423571Y-79702819D02*
X139614047Y-79702819D01*
X139614047Y-79702819D02*
X139709285Y-79655200D01*
X139709285Y-79655200D02*
X139756904Y-79607580D01*
X139756904Y-79607580D02*
X139804523Y-79512342D01*
X139804523Y-79512342D02*
X139804523Y-78702819D01*
X140804523Y-79702819D02*
X140233095Y-79702819D01*
X140518809Y-79702819D02*
X140518809Y-78702819D01*
X140518809Y-78702819D02*
X140423571Y-78845676D01*
X140423571Y-78845676D02*
X140328333Y-78940914D01*
X140328333Y-78940914D02*
X140233095Y-78988533D01*
X134871666Y-57874819D02*
X134871666Y-58589104D01*
X134871666Y-58589104D02*
X134824047Y-58731961D01*
X134824047Y-58731961D02*
X134728809Y-58827200D01*
X134728809Y-58827200D02*
X134585952Y-58874819D01*
X134585952Y-58874819D02*
X134490714Y-58874819D01*
X135871666Y-58874819D02*
X135300238Y-58874819D01*
X135585952Y-58874819D02*
X135585952Y-57874819D01*
X135585952Y-57874819D02*
X135490714Y-58017676D01*
X135490714Y-58017676D02*
X135395476Y-58112914D01*
X135395476Y-58112914D02*
X135300238Y-58160533D01*
X129881333Y-75543580D02*
X129833714Y-75591200D01*
X129833714Y-75591200D02*
X129690857Y-75638819D01*
X129690857Y-75638819D02*
X129595619Y-75638819D01*
X129595619Y-75638819D02*
X129452762Y-75591200D01*
X129452762Y-75591200D02*
X129357524Y-75495961D01*
X129357524Y-75495961D02*
X129309905Y-75400723D01*
X129309905Y-75400723D02*
X129262286Y-75210247D01*
X129262286Y-75210247D02*
X129262286Y-75067390D01*
X129262286Y-75067390D02*
X129309905Y-74876914D01*
X129309905Y-74876914D02*
X129357524Y-74781676D01*
X129357524Y-74781676D02*
X129452762Y-74686438D01*
X129452762Y-74686438D02*
X129595619Y-74638819D01*
X129595619Y-74638819D02*
X129690857Y-74638819D01*
X129690857Y-74638819D02*
X129833714Y-74686438D01*
X129833714Y-74686438D02*
X129881333Y-74734057D01*
X130262286Y-74734057D02*
X130309905Y-74686438D01*
X130309905Y-74686438D02*
X130405143Y-74638819D01*
X130405143Y-74638819D02*
X130643238Y-74638819D01*
X130643238Y-74638819D02*
X130738476Y-74686438D01*
X130738476Y-74686438D02*
X130786095Y-74734057D01*
X130786095Y-74734057D02*
X130833714Y-74829295D01*
X130833714Y-74829295D02*
X130833714Y-74924533D01*
X130833714Y-74924533D02*
X130786095Y-75067390D01*
X130786095Y-75067390D02*
X130214667Y-75638819D01*
X130214667Y-75638819D02*
X130833714Y-75638819D01*
X150314819Y-68897428D02*
X149838628Y-69230761D01*
X150314819Y-69468856D02*
X149314819Y-69468856D01*
X149314819Y-69468856D02*
X149314819Y-69087904D01*
X149314819Y-69087904D02*
X149362438Y-68992666D01*
X149362438Y-68992666D02*
X149410057Y-68945047D01*
X149410057Y-68945047D02*
X149505295Y-68897428D01*
X149505295Y-68897428D02*
X149648152Y-68897428D01*
X149648152Y-68897428D02*
X149743390Y-68945047D01*
X149743390Y-68945047D02*
X149791009Y-68992666D01*
X149791009Y-68992666D02*
X149838628Y-69087904D01*
X149838628Y-69087904D02*
X149838628Y-69468856D01*
X150314819Y-67992666D02*
X150314819Y-68468856D01*
X150314819Y-68468856D02*
X149314819Y-68468856D01*
X150314819Y-67135523D02*
X150314819Y-67706951D01*
X150314819Y-67421237D02*
X149314819Y-67421237D01*
X149314819Y-67421237D02*
X149457676Y-67516475D01*
X149457676Y-67516475D02*
X149552914Y-67611713D01*
X149552914Y-67611713D02*
X149600533Y-67706951D01*
X137773580Y-66166666D02*
X137821200Y-66214285D01*
X137821200Y-66214285D02*
X137868819Y-66357142D01*
X137868819Y-66357142D02*
X137868819Y-66452380D01*
X137868819Y-66452380D02*
X137821200Y-66595237D01*
X137821200Y-66595237D02*
X137725961Y-66690475D01*
X137725961Y-66690475D02*
X137630723Y-66738094D01*
X137630723Y-66738094D02*
X137440247Y-66785713D01*
X137440247Y-66785713D02*
X137297390Y-66785713D01*
X137297390Y-66785713D02*
X137106914Y-66738094D01*
X137106914Y-66738094D02*
X137011676Y-66690475D01*
X137011676Y-66690475D02*
X136916438Y-66595237D01*
X136916438Y-66595237D02*
X136868819Y-66452380D01*
X136868819Y-66452380D02*
X136868819Y-66357142D01*
X136868819Y-66357142D02*
X136916438Y-66214285D01*
X136916438Y-66214285D02*
X136964057Y-66166666D01*
X137202152Y-65309523D02*
X137868819Y-65309523D01*
X136821200Y-65547618D02*
X137535485Y-65785713D01*
X137535485Y-65785713D02*
X137535485Y-65166666D01*
D12*
%TO.C,RB1*%
X132265000Y-70272936D02*
X132265000Y-70727064D01*
X133735000Y-70272936D02*
X133735000Y-70727064D01*
%TO.C,D1*%
X146540000Y-70500000D02*
X146540000Y-73185000D01*
X146540000Y-73185000D02*
X148460000Y-73185000D01*
X148460000Y-73185000D02*
X148460000Y-70500000D01*
%TO.C,RA1*%
X132265000Y-66272936D02*
X132265000Y-66727064D01*
X133735000Y-66272936D02*
X133735000Y-66727064D01*
%TO.C,C1*%
X145765000Y-75238748D02*
X145765000Y-75761252D01*
X147235000Y-75238748D02*
X147235000Y-75761252D01*
%TO.C,D2*%
X148040000Y-74500000D02*
X148040000Y-77185000D01*
X148040000Y-77185000D02*
X149960000Y-77185000D01*
X149960000Y-77185000D02*
X149960000Y-74500000D01*
%TO.C,U1*%
X137345000Y-67630000D02*
X137345000Y-77910000D01*
X137345000Y-77910000D02*
X138995000Y-77910000D01*
X140995000Y-77910000D02*
X142645000Y-77910000D01*
X142645000Y-67630000D02*
X137345000Y-67630000D01*
X142645000Y-77910000D02*
X142645000Y-67630000D01*
X138995000Y-77910000D02*
G75*
G02*
X140995000Y-77910000I1000000J0D01*
G01*
%TO.C,J1*%
X137160000Y-64262000D02*
X137160000Y-62992000D01*
X138000000Y-61832000D02*
X138000000Y-61602000D01*
X138430000Y-64262000D02*
X137160000Y-64262000D01*
X138860000Y-61832000D02*
X138860000Y-61602000D01*
X139700000Y-61602000D02*
X139700000Y-58842000D01*
X140540000Y-52842000D02*
X141400000Y-52842000D01*
X140540000Y-58842000D02*
X140540000Y-52842000D01*
X140540000Y-61914642D02*
X140540000Y-61602000D01*
X141400000Y-52842000D02*
X141400000Y-58842000D01*
X141400000Y-61914642D02*
X141400000Y-61602000D01*
X137050000Y-61602000D02*
X142350000Y-61602000D01*
X142350000Y-58842000D01*
X137050000Y-58842000D01*
X137050000Y-61602000D01*
X138000000Y-58842000D02*
X138860000Y-58842000D01*
X138860000Y-52842000D01*
X138000000Y-52842000D01*
X138000000Y-58842000D01*
G36*
X138000000Y-58842000D02*
G01*
X138860000Y-58842000D01*
X138860000Y-52842000D01*
X138000000Y-52842000D01*
X138000000Y-58842000D01*
G37*
%TO.C,C2*%
X131640000Y-74263748D02*
X131640000Y-75686252D01*
X134360000Y-74263748D02*
X134360000Y-75686252D01*
%TO.C,RL1*%
X147185436Y-67765000D02*
X147639564Y-67765000D01*
X147185436Y-69235000D02*
X147639564Y-69235000D01*
%TO.C,C4*%
X139692748Y-65265000D02*
X140215252Y-65265000D01*
X139692748Y-66735000D02*
X140215252Y-66735000D01*
%TD*%
D13*
%TO.P,U1,1,GND*%
%TO.N,GNDREF*%
X143805000Y-76580000D03*
D14*
%TO.P,U1,2,TRIG*%
%TO.N,Net-(U1-THRES)*%
X143805000Y-74040000D03*
%TO.P,U1,3,OUT*%
%TO.N,Net-(D1-K)*%
X143805000Y-71500000D03*
%TO.P,U1,4,~{RST}*%
%TO.N,Net-(J1-Pin_1)*%
X143805000Y-68960000D03*
%TO.P,U1,5,CONT*%
%TO.N,Net-(U1-CONT)*%
X136185000Y-68960000D03*
%TO.P,U1,6,THRES*%
%TO.N,Net-(U1-THRES)*%
X136185000Y-71500000D03*
%TO.P,U1,7,DISCH*%
%TO.N,Net-(U1-DISCH)*%
X136185000Y-74040000D03*
%TO.P,U1,8,VCC*%
%TO.N,Net-(J1-Pin_1)*%
X136185000Y-76580000D03*
%TD*%
D15*
%TO.P,J1,1,Pin_1*%
%TO.N,Net-(J1-Pin_1)*%
X138430000Y-62992000D03*
D16*
%TO.P,J1,2,Pin_2*%
%TO.N,GNDREF*%
X140970000Y-62992000D03*
%TD*%
D17*
%TO.N,Net-(J1-Pin_1)*%
X145288000Y-68834000D03*
%TD*%
D18*
%TO.N,Net-(J1-Pin_1)*%
X142807000Y-70299000D02*
X136526000Y-76580000D01*
X136526000Y-76580000D02*
X136185000Y-76580000D01*
X145288000Y-69088000D02*
X144077000Y-70299000D01*
X144077000Y-70299000D02*
X142807000Y-70299000D01*
X145288000Y-68834000D02*
X145288000Y-69088000D01*
%TD*%
%TA.AperFunction,Conductor*%
%TO.N,GNDREF*%
G36*
X151399677Y-52089685D02*
G01*
X151420319Y-52106319D01*
X151601681Y-52287681D01*
X151635166Y-52349004D01*
X151638000Y-52375362D01*
X151638000Y-79704638D01*
X151629355Y-79734078D01*
X151622832Y-79764065D01*
X151619077Y-79769080D01*
X151618315Y-79771677D01*
X151601681Y-79792319D01*
X151430819Y-79963181D01*
X151369496Y-79996666D01*
X151343138Y-79999500D01*
X130349199Y-79999500D01*
X130282160Y-79979815D01*
X130255777Y-79957037D01*
X130111276Y-79791464D01*
X130082028Y-79728014D01*
X130080706Y-79708930D01*
X130103515Y-76886420D01*
X130106827Y-76476530D01*
X135134500Y-76476530D01*
X135134500Y-76683469D01*
X135174868Y-76886412D01*
X135174870Y-76886420D01*
X135254058Y-77077596D01*
X135369024Y-77249657D01*
X135515342Y-77395975D01*
X135515345Y-77395977D01*
X135687402Y-77510941D01*
X135878580Y-77590130D01*
X136081530Y-77630499D01*
X136081534Y-77630500D01*
X136081535Y-77630500D01*
X136288466Y-77630500D01*
X136288467Y-77630499D01*
X136491420Y-77590130D01*
X136682598Y-77510941D01*
X136854655Y-77395977D01*
X137000977Y-77249655D01*
X137115941Y-77077598D01*
X137195130Y-76886420D01*
X137235500Y-76683465D01*
X137235500Y-76558965D01*
X137255185Y-76491926D01*
X137271819Y-76471284D01*
X139806573Y-73936530D01*
X142754500Y-73936530D01*
X142754500Y-74143469D01*
X142794868Y-74346412D01*
X142794870Y-74346420D01*
X142874058Y-74537596D01*
X142989024Y-74709657D01*
X143135342Y-74855975D01*
X143135345Y-74855977D01*
X143307402Y-74970941D01*
X143498580Y-75050130D01*
X143701530Y-75090499D01*
X143701534Y-75090500D01*
X143701535Y-75090500D01*
X143908466Y-75090500D01*
X143908467Y-75090499D01*
X144111420Y-75050130D01*
X144302598Y-74970941D01*
X144474655Y-74855977D01*
X144620977Y-74709655D01*
X144735941Y-74537598D01*
X144815130Y-74346420D01*
X144855500Y-74143465D01*
X144855500Y-73936535D01*
X144815130Y-73733580D01*
X144735941Y-73542402D01*
X144620977Y-73370345D01*
X144620975Y-73370342D01*
X144474657Y-73224024D01*
X144388626Y-73166541D01*
X144302598Y-73109059D01*
X144111420Y-73029870D01*
X144111412Y-73029868D01*
X143908469Y-72989500D01*
X143908465Y-72989500D01*
X143701535Y-72989500D01*
X143701530Y-72989500D01*
X143498587Y-73029868D01*
X143498579Y-73029870D01*
X143307403Y-73109058D01*
X143135342Y-73224024D01*
X142989024Y-73370342D01*
X142874058Y-73542403D01*
X142794870Y-73733579D01*
X142794868Y-73733587D01*
X142754500Y-73936530D01*
X139806573Y-73936530D01*
X139900341Y-73842762D01*
X141232974Y-72510129D01*
X142566746Y-71176356D01*
X142628067Y-71142873D01*
X142697759Y-71147857D01*
X142753692Y-71189729D01*
X142778109Y-71255193D01*
X142776043Y-71288229D01*
X142754500Y-71396536D01*
X142754500Y-71603469D01*
X142794868Y-71806412D01*
X142794870Y-71806420D01*
X142874058Y-71997596D01*
X142989024Y-72169657D01*
X143135342Y-72315975D01*
X143135345Y-72315977D01*
X143307402Y-72430941D01*
X143498580Y-72510130D01*
X143701530Y-72550499D01*
X143701534Y-72550500D01*
X143701535Y-72550500D01*
X143908466Y-72550500D01*
X143908467Y-72550499D01*
X144111420Y-72510130D01*
X144302598Y-72430941D01*
X144474655Y-72315977D01*
X144620977Y-72169655D01*
X144735941Y-71997598D01*
X144815130Y-71806420D01*
X144855500Y-71603465D01*
X144855500Y-71396535D01*
X144815130Y-71193580D01*
X144735941Y-71002402D01*
X144620977Y-70830345D01*
X144620975Y-70830342D01*
X144489548Y-70698915D01*
X144456063Y-70637592D01*
X144461047Y-70567900D01*
X144489545Y-70523556D01*
X145648490Y-69364614D01*
X145707799Y-69261886D01*
X145722450Y-69207207D01*
X145730573Y-69176891D01*
X145742962Y-69146981D01*
X145800981Y-69046490D01*
X145800982Y-69046489D01*
X145800982Y-69046487D01*
X145800984Y-69046485D01*
X145838500Y-68906475D01*
X145838500Y-68761525D01*
X145800984Y-68621515D01*
X145785360Y-68594454D01*
X145728511Y-68495988D01*
X145728506Y-68495982D01*
X145626017Y-68393493D01*
X145626011Y-68393488D01*
X145500488Y-68321017D01*
X145500489Y-68321017D01*
X145489006Y-68317940D01*
X145360475Y-68283500D01*
X145215525Y-68283500D01*
X145086993Y-68317940D01*
X145075511Y-68321017D01*
X144949988Y-68393488D01*
X144949981Y-68393494D01*
X144900912Y-68442563D01*
X144839589Y-68476047D01*
X144769897Y-68471062D01*
X144713964Y-68429191D01*
X144710130Y-68423772D01*
X144620977Y-68290344D01*
X144474657Y-68144024D01*
X144388626Y-68086541D01*
X144302598Y-68029059D01*
X144111420Y-67949870D01*
X144111412Y-67949868D01*
X143908469Y-67909500D01*
X143908465Y-67909500D01*
X143701535Y-67909500D01*
X143701530Y-67909500D01*
X143498587Y-67949868D01*
X143498579Y-67949870D01*
X143307403Y-68029058D01*
X143135342Y-68144024D01*
X142989024Y-68290342D01*
X142874058Y-68462403D01*
X142794870Y-68653579D01*
X142794868Y-68653587D01*
X142754500Y-68856530D01*
X142754500Y-69063469D01*
X142794868Y-69266412D01*
X142794870Y-69266420D01*
X142874058Y-69457596D01*
X142989024Y-69629657D01*
X142996186Y-69636819D01*
X143029671Y-69698142D01*
X143024687Y-69767834D01*
X142982815Y-69823767D01*
X142917351Y-69848184D01*
X142908505Y-69848500D01*
X142747691Y-69848500D01*
X142633114Y-69879201D01*
X142633112Y-69879201D01*
X142633112Y-69879202D01*
X142612780Y-69890941D01*
X142612779Y-69890941D01*
X142530389Y-69938508D01*
X142530384Y-69938512D01*
X136836824Y-75632071D01*
X136775501Y-75665556D01*
X136705809Y-75660572D01*
X136688173Y-75651544D01*
X136687968Y-75651929D01*
X136682599Y-75649059D01*
X136491420Y-75569870D01*
X136491412Y-75569868D01*
X136288469Y-75529500D01*
X136288465Y-75529500D01*
X136081535Y-75529500D01*
X136081530Y-75529500D01*
X135878587Y-75569868D01*
X135878579Y-75569870D01*
X135687403Y-75649058D01*
X135515342Y-75764024D01*
X135369024Y-75910342D01*
X135254058Y-76082403D01*
X135174870Y-76273579D01*
X135174868Y-76273587D01*
X135134500Y-76476530D01*
X130106827Y-76476530D01*
X130118027Y-75090499D01*
X130127353Y-73936530D01*
X135134500Y-73936530D01*
X135134500Y-74143469D01*
X135174868Y-74346412D01*
X135174870Y-74346420D01*
X135254058Y-74537596D01*
X135369024Y-74709657D01*
X135515342Y-74855975D01*
X135515345Y-74855977D01*
X135687402Y-74970941D01*
X135878580Y-75050130D01*
X136081530Y-75090499D01*
X136081534Y-75090500D01*
X136081535Y-75090500D01*
X136288466Y-75090500D01*
X136288467Y-75090499D01*
X136491420Y-75050130D01*
X136682598Y-74970941D01*
X136854655Y-74855977D01*
X137000977Y-74709655D01*
X137115941Y-74537598D01*
X137195130Y-74346420D01*
X137235500Y-74143465D01*
X137235500Y-73936535D01*
X137195130Y-73733580D01*
X137115941Y-73542402D01*
X137000977Y-73370345D01*
X137000975Y-73370342D01*
X136854657Y-73224024D01*
X136768626Y-73166541D01*
X136682598Y-73109059D01*
X136491420Y-73029870D01*
X136491412Y-73029868D01*
X136288469Y-72989500D01*
X136288465Y-72989500D01*
X136081535Y-72989500D01*
X136081530Y-72989500D01*
X135878587Y-73029868D01*
X135878579Y-73029870D01*
X135687403Y-73109058D01*
X135515342Y-73224024D01*
X135369024Y-73370342D01*
X135254058Y-73542403D01*
X135174870Y-73733579D01*
X135174868Y-73733587D01*
X135134500Y-73936530D01*
X130127353Y-73936530D01*
X130127410Y-73929441D01*
X130147878Y-71396530D01*
X135134500Y-71396530D01*
X135134500Y-71603469D01*
X135174868Y-71806412D01*
X135174870Y-71806420D01*
X135254058Y-71997596D01*
X135369024Y-72169657D01*
X135515342Y-72315975D01*
X135515345Y-72315977D01*
X135687402Y-72430941D01*
X135878580Y-72510130D01*
X136081530Y-72550499D01*
X136081534Y-72550500D01*
X136081535Y-72550500D01*
X136288466Y-72550500D01*
X136288467Y-72550499D01*
X136491420Y-72510130D01*
X136682598Y-72430941D01*
X136854655Y-72315977D01*
X137000977Y-72169655D01*
X137115941Y-71997598D01*
X137195130Y-71806420D01*
X137235500Y-71603465D01*
X137235500Y-71396535D01*
X137195130Y-71193580D01*
X137115941Y-71002402D01*
X137000977Y-70830345D01*
X137000975Y-70830342D01*
X136854657Y-70684024D01*
X136767389Y-70625714D01*
X136682598Y-70569059D01*
X136572737Y-70523553D01*
X136491420Y-70489870D01*
X136491412Y-70489868D01*
X136288469Y-70449500D01*
X136288465Y-70449500D01*
X136081535Y-70449500D01*
X136081530Y-70449500D01*
X135878587Y-70489868D01*
X135878579Y-70489870D01*
X135687403Y-70569058D01*
X135515342Y-70684024D01*
X135369024Y-70830342D01*
X135254058Y-71002403D01*
X135174870Y-71193579D01*
X135174868Y-71193587D01*
X135134500Y-71396530D01*
X130147878Y-71396530D01*
X130153635Y-70684024D01*
X130168403Y-68856530D01*
X135134500Y-68856530D01*
X135134500Y-69063469D01*
X135174868Y-69266412D01*
X135174870Y-69266420D01*
X135254058Y-69457596D01*
X135369024Y-69629657D01*
X135515342Y-69775975D01*
X135515345Y-69775977D01*
X135687402Y-69890941D01*
X135878580Y-69970130D01*
X136081530Y-70010499D01*
X136081534Y-70010500D01*
X136081535Y-70010500D01*
X136288466Y-70010500D01*
X136288467Y-70010499D01*
X136491420Y-69970130D01*
X136682598Y-69890941D01*
X136854655Y-69775977D01*
X137000977Y-69629655D01*
X137115941Y-69457598D01*
X137195130Y-69266420D01*
X137235500Y-69063465D01*
X137235500Y-68856535D01*
X137195130Y-68653580D01*
X137115941Y-68462402D01*
X137000977Y-68290345D01*
X137000976Y-68290344D01*
X137000975Y-68290342D01*
X136854657Y-68144024D01*
X136768626Y-68086541D01*
X136682598Y-68029059D01*
X136491420Y-67949870D01*
X136491412Y-67949868D01*
X136288469Y-67909500D01*
X136288465Y-67909500D01*
X136081535Y-67909500D01*
X136081530Y-67909500D01*
X135878587Y-67949868D01*
X135878579Y-67949870D01*
X135687403Y-68029058D01*
X135515342Y-68144024D01*
X135369024Y-68290342D01*
X135254058Y-68462403D01*
X135174870Y-68653579D01*
X135174868Y-68653587D01*
X135134500Y-68856530D01*
X130168403Y-68856530D01*
X130222861Y-62117321D01*
X137329500Y-62117321D01*
X137329500Y-63866678D01*
X137344032Y-63939735D01*
X137344033Y-63939739D01*
X137344034Y-63939740D01*
X137399399Y-64022601D01*
X137482260Y-64077966D01*
X137482264Y-64077967D01*
X137555321Y-64092499D01*
X137555324Y-64092500D01*
X137555326Y-64092500D01*
X139304676Y-64092500D01*
X139304677Y-64092499D01*
X139377740Y-64077966D01*
X139460601Y-64022601D01*
X139515966Y-63939740D01*
X139530500Y-63866674D01*
X139530500Y-62117326D01*
X139530500Y-62117323D01*
X139530499Y-62117321D01*
X139515967Y-62044264D01*
X139515966Y-62044260D01*
X139460601Y-61961399D01*
X139377740Y-61906034D01*
X139377739Y-61906033D01*
X139377735Y-61906032D01*
X139304677Y-61891500D01*
X139304674Y-61891500D01*
X137555326Y-61891500D01*
X137555323Y-61891500D01*
X137482264Y-61906032D01*
X137482260Y-61906033D01*
X137399399Y-61961399D01*
X137344033Y-62044260D01*
X137344032Y-62044264D01*
X137329500Y-62117321D01*
X130222861Y-62117321D01*
X130301589Y-52374771D01*
X130321815Y-52307896D01*
X130337899Y-52288100D01*
X130519681Y-52106319D01*
X130581004Y-52072834D01*
X130607362Y-52070000D01*
X151332638Y-52070000D01*
X151399677Y-52089685D01*
G37*
%TD.AperFunction*%
%TD*%
D19*
%TO.C,U1*%
X143805000Y-76580000D03*
D20*
X143805000Y-74040000D03*
X143805000Y-71500000D03*
X143805000Y-68960000D03*
X136185000Y-68960000D03*
X136185000Y-71500000D03*
X136185000Y-74040000D03*
X136185000Y-76580000D03*
%TD*%
D21*
%TO.C,J1*%
X138430000Y-62992000D03*
D22*
X140970000Y-62992000D03*
%TD*%
D23*
%TO.P,RB1,1*%
%TO.N,Net-(U1-DISCH)*%
X133000000Y-69587500D03*
%TO.P,RB1,2*%
%TO.N,Net-(U1-THRES)*%
X133000000Y-71412500D03*
%TD*%
D24*
%TO.P,D1,1,K*%
%TO.N,Net-(D1-K)*%
X147500000Y-72437500D03*
%TO.P,D1,2,A*%
%TO.N,Net-(D1-A)*%
X147500000Y-70562500D03*
%TD*%
D23*
%TO.P,RA1,1*%
%TO.N,Net-(J1-Pin_1)*%
X133000000Y-65587500D03*
%TO.P,RA1,2*%
%TO.N,Net-(U1-DISCH)*%
X133000000Y-67412500D03*
%TD*%
D25*
%TO.P,C1,1*%
%TO.N,Net-(U1-CONT)*%
X146500000Y-74550000D03*
%TO.P,C1,2*%
%TO.N,GNDREF*%
X146500000Y-76450000D03*
%TD*%
D24*
%TO.P,D2,1,K*%
%TO.N,GNDREF*%
X149000000Y-76437500D03*
%TO.P,D2,2,A*%
%TO.N,Net-(D1-K)*%
X149000000Y-74562500D03*
%TD*%
D13*
%TO.P,U1,1,GND*%
%TO.N,GNDREF*%
X143805000Y-76580000D03*
D14*
%TO.P,U1,2,TRIG*%
%TO.N,Net-(U1-THRES)*%
X143805000Y-74040000D03*
%TO.P,U1,3,OUT*%
%TO.N,Net-(D1-K)*%
X143805000Y-71500000D03*
%TO.P,U1,4,~{RST}*%
%TO.N,Net-(J1-Pin_1)*%
X143805000Y-68960000D03*
%TO.P,U1,5,CONT*%
%TO.N,Net-(U1-CONT)*%
X136185000Y-68960000D03*
%TO.P,U1,6,THRES*%
%TO.N,Net-(U1-THRES)*%
X136185000Y-71500000D03*
%TO.P,U1,7,DISCH*%
%TO.N,Net-(U1-DISCH)*%
X136185000Y-74040000D03*
%TO.P,U1,8,VCC*%
%TO.N,Net-(J1-Pin_1)*%
X136185000Y-76580000D03*
%TD*%
D15*
%TO.P,J1,1,Pin_1*%
%TO.N,Net-(J1-Pin_1)*%
X138430000Y-62992000D03*
D16*
%TO.P,J1,2,Pin_2*%
%TO.N,GNDREF*%
X140970000Y-62992000D03*
%TD*%
D26*
%TO.P,C2,1*%
%TO.N,Net-(U1-THRES)*%
X133000000Y-73500000D03*
%TO.P,C2,2*%
%TO.N,GNDREF*%
X133000000Y-76450000D03*
%TD*%
D27*
%TO.P,RL1,1*%
%TO.N,Net-(J1-Pin_1)*%
X146500000Y-68500000D03*
%TO.P,RL1,2*%
%TO.N,Net-(D1-A)*%
X148325000Y-68500000D03*
%TD*%
D28*
%TO.P,C4,1*%
%TO.N,Net-(J1-Pin_1)*%
X139004000Y-66000000D03*
%TO.P,C4,2*%
%TO.N,GNDREF*%
X140904000Y-66000000D03*
%TD*%
D17*
%TO.N,Net-(J1-Pin_1)*%
X145288000Y-68834000D03*
%TD*%
D18*
%TO.N,GNDREF*%
X140970000Y-62885000D02*
X140970000Y-65680000D01*
X140970000Y-65680000D02*
X140650000Y-66000000D01*
%TO.N,Net-(J1-Pin_1)*%
X138684000Y-63246000D02*
X138938000Y-63246000D01*
X138430000Y-62992000D02*
X138684000Y-63246000D01*
X138938000Y-63246000D02*
X139004000Y-63312000D01*
X139004000Y-63312000D02*
X139004000Y-66000000D01*
%TO.N,Net-(U1-CONT)*%
X144651000Y-72701000D02*
X146500000Y-74550000D01*
X139926000Y-72701000D02*
X136185000Y-68960000D01*
X144651000Y-72701000D02*
X139926000Y-72701000D01*
%TO.N,Net-(U1-THRES)*%
X138725000Y-74040000D02*
X143805000Y-74040000D01*
X136185000Y-71500000D02*
X138725000Y-74040000D01*
%TD*%
%TA.AperFunction,Conductor*%
%TO.N,Net-(U1-DISCH)*%
G36*
X133619677Y-66821685D02*
G01*
X133640319Y-66838319D01*
X133821681Y-67019681D01*
X133855166Y-67081004D01*
X133858000Y-67107362D01*
X133858000Y-69798638D01*
X133838315Y-69865677D01*
X133821681Y-69886319D01*
X133640319Y-70067681D01*
X133578996Y-70101166D01*
X133552638Y-70104000D01*
X131317999Y-70104000D01*
X131064000Y-70357999D01*
X131064000Y-70358000D01*
X131064000Y-74422000D01*
X131318000Y-74676000D01*
X134874000Y-74676000D01*
X135128000Y-74422000D01*
X135128000Y-73457362D01*
X135147685Y-73390323D01*
X135164319Y-73369681D01*
X135345681Y-73188319D01*
X135407004Y-73154834D01*
X135433362Y-73152000D01*
X136854638Y-73152000D01*
X136921677Y-73171685D01*
X136942319Y-73188319D01*
X137123681Y-73369681D01*
X137157166Y-73431004D01*
X137160000Y-73457362D01*
X137160000Y-74624638D01*
X137140315Y-74691677D01*
X137123681Y-74712319D01*
X136897319Y-74938681D01*
X136835996Y-74972166D01*
X136809638Y-74975000D01*
X130861362Y-74975000D01*
X130794323Y-74955315D01*
X130773681Y-74938681D01*
X130592319Y-74757319D01*
X130558834Y-74695996D01*
X130556000Y-74669638D01*
X130556000Y-67107362D01*
X130575685Y-67040323D01*
X130592319Y-67019681D01*
X130773681Y-66838319D01*
X130835004Y-66804834D01*
X130861362Y-66802000D01*
X133552638Y-66802000D01*
X133619677Y-66821685D01*
G37*
%TD.AperFunction*%
%TD*%
%TA.AperFunction,Conductor*%
%TO.N,Net-(U1-THRES)*%
G36*
X137015677Y-70519685D02*
G01*
X137036319Y-70536319D01*
X137209681Y-70709681D01*
X137243166Y-70771004D01*
X137246000Y-70797362D01*
X137246000Y-72327638D01*
X137237355Y-72357075D01*
X137230832Y-72387066D01*
X137227077Y-72392081D01*
X137226315Y-72394677D01*
X137209680Y-72415320D01*
X137163851Y-72461148D01*
X137102528Y-72494632D01*
X137070119Y-72497318D01*
X134874000Y-72389999D01*
X134873998Y-72390000D01*
X134620000Y-72643999D01*
X134620000Y-73862638D01*
X134600315Y-73929677D01*
X134583681Y-73950319D01*
X134402319Y-74131681D01*
X134340996Y-74165166D01*
X134314638Y-74168000D01*
X131877362Y-74168000D01*
X131810323Y-74148315D01*
X131789681Y-74131681D01*
X131608319Y-73950319D01*
X131574834Y-73888996D01*
X131572000Y-73862638D01*
X131572000Y-70686275D01*
X131575938Y-70672860D01*
X131575058Y-70658905D01*
X131585589Y-70639995D01*
X131591685Y-70619236D01*
X131602936Y-70608847D01*
X131609054Y-70597864D01*
X131637485Y-70576950D01*
X131753834Y-70514675D01*
X131812349Y-70500000D01*
X136948638Y-70500000D01*
X137015677Y-70519685D01*
G37*
%TD.AperFunction*%
%TD*%
%TA.AperFunction,Conductor*%
%TO.N,Net-(D1-K)*%
G36*
X144541677Y-70631685D02*
G01*
X144562319Y-70648319D01*
X144743681Y-70829681D01*
X144777166Y-70891004D01*
X144780000Y-70917362D01*
X144780000Y-71628000D01*
X145034000Y-71882000D01*
X148284638Y-71882000D01*
X148351677Y-71901685D01*
X148372319Y-71918319D01*
X148553681Y-72099681D01*
X148587166Y-72161004D01*
X148590000Y-72187362D01*
X148590000Y-73660000D01*
X148589999Y-73660000D01*
X148843999Y-73965125D01*
X148844000Y-73965126D01*
X149542749Y-73965126D01*
X149547207Y-73966435D01*
X149551749Y-73965453D01*
X149580418Y-73976187D01*
X149609788Y-73984811D01*
X149614041Y-73988775D01*
X149617183Y-73989952D01*
X149642109Y-74014940D01*
X149723370Y-74123775D01*
X149747705Y-74189269D01*
X149748010Y-74197961D01*
X149748010Y-74873316D01*
X149728325Y-74940355D01*
X149718628Y-74953463D01*
X149636275Y-75050685D01*
X149577924Y-75089116D01*
X149541235Y-75094537D01*
X148491389Y-75090966D01*
X148466616Y-75083600D01*
X148441012Y-75080084D01*
X148428838Y-75072368D01*
X148424417Y-75071054D01*
X148411201Y-75061190D01*
X148313348Y-74977474D01*
X148275203Y-74918935D01*
X148269958Y-74883251D01*
X148269958Y-73924353D01*
X148082000Y-73660000D01*
X146609362Y-73660000D01*
X146542323Y-73640315D01*
X146521681Y-73623681D01*
X146340319Y-73442319D01*
X146306834Y-73380996D01*
X146304000Y-73354638D01*
X146304000Y-72643999D01*
X146303999Y-72643998D01*
X146044864Y-72328104D01*
X146044863Y-72328104D01*
X144954924Y-72336537D01*
X144943006Y-72333897D01*
X144934445Y-72334995D01*
X144911966Y-72327022D01*
X144900737Y-72324535D01*
X144896246Y-72322400D01*
X144824887Y-72281201D01*
X144800673Y-72274713D01*
X144789755Y-72271787D01*
X144789752Y-72271786D01*
X144731808Y-72256260D01*
X144710309Y-72250500D01*
X143146522Y-72250500D01*
X143128252Y-72245135D01*
X143109217Y-72244755D01*
X143081421Y-72231384D01*
X143079483Y-72230815D01*
X143077466Y-72229491D01*
X143003982Y-72180164D01*
X142959293Y-72126457D01*
X142949094Y-72077210D01*
X142949094Y-70930598D01*
X142968779Y-70863559D01*
X142992706Y-70836186D01*
X143221252Y-70641588D01*
X143285056Y-70613114D01*
X143301640Y-70612000D01*
X144474638Y-70612000D01*
X144541677Y-70631685D01*
G37*
%TD.AperFunction*%
%TD*%
%TA.AperFunction,Conductor*%
%TO.N,GNDREF*%
G36*
X150891677Y-65297685D02*
G01*
X150912319Y-65314319D01*
X151093681Y-65495681D01*
X151127166Y-65557004D01*
X151130000Y-65583362D01*
X151130000Y-79196638D01*
X151110315Y-79263677D01*
X151093681Y-79284319D01*
X150912324Y-79465675D01*
X150851001Y-79499160D01*
X150824630Y-79501994D01*
X131814218Y-79500006D01*
X131808169Y-79498229D01*
X131801972Y-79499399D01*
X131775042Y-79488498D01*
X131747181Y-79480314D01*
X131741581Y-79474953D01*
X131737207Y-79473183D01*
X131712949Y-79447546D01*
X131594718Y-79280162D01*
X131572119Y-79214048D01*
X131572000Y-79208622D01*
X131572000Y-75984400D01*
X131591685Y-75917361D01*
X131593702Y-75914321D01*
X131709063Y-75745921D01*
X131763189Y-75701739D01*
X131811361Y-75692000D01*
X134314638Y-75692000D01*
X134381677Y-75711685D01*
X134402319Y-75728319D01*
X134583681Y-75909681D01*
X134617166Y-75971004D01*
X134620000Y-75997362D01*
X134620000Y-78232000D01*
X134619999Y-78232000D01*
X134750405Y-78369593D01*
X134874000Y-78500000D01*
X142494000Y-78486000D01*
X142748000Y-78232000D01*
X142748000Y-76007719D01*
X142749205Y-76003612D01*
X142748277Y-75999433D01*
X142758964Y-75970379D01*
X142767685Y-75940680D01*
X142771339Y-75936736D01*
X142772398Y-75933859D01*
X142797236Y-75908793D01*
X142968363Y-75779477D01*
X143033711Y-75754767D01*
X143044140Y-75754414D01*
X150368000Y-75816061D01*
X150622000Y-75692000D01*
X150622000Y-67056000D01*
X150368000Y-66802000D01*
X140513362Y-66802000D01*
X140446323Y-66782315D01*
X140425681Y-66765681D01*
X140244319Y-66584319D01*
X140210834Y-66522996D01*
X140208000Y-66496638D01*
X140208000Y-65583362D01*
X140227685Y-65516323D01*
X140244319Y-65495681D01*
X140425681Y-65314319D01*
X140487004Y-65280834D01*
X140513362Y-65278000D01*
X150824638Y-65278000D01*
X150891677Y-65297685D01*
G37*
%TD.AperFunction*%
%TD*%
%TA.AperFunction,Conductor*%
%TO.N,Net-(D1-A)*%
G36*
X148859677Y-67837685D02*
G01*
X148880319Y-67854319D01*
X149061681Y-68035681D01*
X149095166Y-68097004D01*
X149098000Y-68123362D01*
X149098000Y-70814638D01*
X149078315Y-70881677D01*
X149061681Y-70902319D01*
X148880319Y-71083681D01*
X148818996Y-71117166D01*
X148792638Y-71120000D01*
X146863362Y-71120000D01*
X146796323Y-71100315D01*
X146775681Y-71083681D01*
X146594319Y-70902319D01*
X146560834Y-70840996D01*
X146558000Y-70814638D01*
X146558000Y-69901362D01*
X146577685Y-69834323D01*
X146594319Y-69813681D01*
X146775681Y-69632319D01*
X146837004Y-69598834D01*
X146863362Y-69596000D01*
X147320000Y-69596000D01*
X147574000Y-69342000D01*
X147574000Y-68123626D01*
X147593685Y-68056587D01*
X147610638Y-68035627D01*
X147793589Y-67854001D01*
X147855033Y-67820739D01*
X147880951Y-67818000D01*
X148792638Y-67818000D01*
X148859677Y-67837685D01*
G37*
%TD.AperFunction*%
%TD*%
%TA.AperFunction,Conductor*%
%TO.N,Net-(J1-Pin_1)*%
G36*
X139374421Y-65033549D02*
G01*
X139398925Y-65040781D01*
X139424266Y-65044083D01*
X139436958Y-65052004D01*
X139441432Y-65053325D01*
X139454207Y-65062770D01*
X139492956Y-65095459D01*
X139531505Y-65153733D01*
X139536993Y-65188875D01*
X139558962Y-67187427D01*
X139558963Y-67187428D01*
X139699998Y-67309999D01*
X139699999Y-67310000D01*
X139700000Y-67310000D01*
X146765889Y-67310000D01*
X146832928Y-67329685D01*
X146846902Y-67340123D01*
X147063313Y-67526905D01*
X147101201Y-67585606D01*
X147106292Y-67620774D01*
X147106292Y-69017430D01*
X147086607Y-69084469D01*
X147066133Y-69108789D01*
X146847565Y-69309362D01*
X146784864Y-69340185D01*
X146763727Y-69342000D01*
X145033999Y-69342000D01*
X144562319Y-69813681D01*
X144500996Y-69847166D01*
X144474638Y-69850000D01*
X143053362Y-69850000D01*
X142986323Y-69830315D01*
X142965681Y-69813681D01*
X142784319Y-69632319D01*
X142750834Y-69570996D01*
X142748000Y-69544638D01*
X142748000Y-68072000D01*
X142494000Y-67818000D01*
X138735362Y-67818000D01*
X138668323Y-67798315D01*
X138647681Y-67781681D01*
X138466319Y-67600319D01*
X138432834Y-67538996D01*
X138430000Y-67512638D01*
X138430000Y-66548000D01*
X138176000Y-66294000D01*
X132385362Y-66294000D01*
X132318323Y-66274315D01*
X132297681Y-66257681D01*
X132116319Y-66076319D01*
X132082834Y-66014996D01*
X132080000Y-65988638D01*
X132080000Y-65329362D01*
X132099685Y-65262323D01*
X132116319Y-65241681D01*
X132204267Y-65153733D01*
X132297613Y-65060386D01*
X132358934Y-65026903D01*
X132385452Y-65024069D01*
X139374421Y-65033549D01*
G37*
%TD.AperFunction*%
%TD*%
D29*
%TO.C,RB1*%
X133000000Y-69587500D03*
X133000000Y-71412500D03*
%TD*%
D30*
%TO.C,D1*%
X147500000Y-72437500D03*
X147500000Y-70562500D03*
%TD*%
D29*
%TO.C,RA1*%
X133000000Y-65587500D03*
X133000000Y-67412500D03*
%TD*%
D31*
%TO.C,C1*%
X146500000Y-74550000D03*
X146500000Y-76450000D03*
%TD*%
D30*
%TO.C,D2*%
X149000000Y-76437500D03*
X149000000Y-74562500D03*
%TD*%
D19*
%TO.C,U1*%
X143805000Y-76580000D03*
D20*
X143805000Y-74040000D03*
X143805000Y-71500000D03*
X143805000Y-68960000D03*
X136185000Y-68960000D03*
X136185000Y-71500000D03*
X136185000Y-74040000D03*
X136185000Y-76580000D03*
%TD*%
D21*
%TO.C,J1*%
X138430000Y-62992000D03*
D22*
X140970000Y-62992000D03*
%TD*%
D32*
%TO.C,C2*%
X133000000Y-73500000D03*
X133000000Y-76450000D03*
%TD*%
D33*
%TO.C,RL1*%
X146500000Y-68500000D03*
X148325000Y-68500000D03*
%TD*%
D34*
%TO.C,C4*%
X139004000Y-66000000D03*
X140904000Y-66000000D03*
%TD*%
D29*
%TO.C,RB1*%
X133000000Y-69587500D03*
X133000000Y-71412500D03*
%TD*%
D30*
%TO.C,D1*%
X147500000Y-72437500D03*
X147500000Y-70562500D03*
%TD*%
D29*
%TO.C,RA1*%
X133000000Y-65587500D03*
X133000000Y-67412500D03*
%TD*%
D31*
%TO.C,C1*%
X146500000Y-74550000D03*
X146500000Y-76450000D03*
%TD*%
D30*
%TO.C,D2*%
X149000000Y-76437500D03*
X149000000Y-74562500D03*
%TD*%
D32*
%TO.C,C2*%
X133000000Y-73500000D03*
X133000000Y-76450000D03*
%TD*%
D33*
%TO.C,RL1*%
X146500000Y-68500000D03*
X148325000Y-68500000D03*
%TD*%
D34*
%TO.C,C4*%
X139004000Y-66000000D03*
X140904000Y-66000000D03*
%TD*%
%TO.C,RB1*%
D35*
X133950000Y-68820000D02*
X132050000Y-68820000D01*
X132050000Y-72180000D01*
X133950000Y-72180000D01*
X133950000Y-68820000D01*
%TO.C,D1*%
X146550000Y-73180000D02*
X148450000Y-73180000D01*
X148450000Y-69820000D01*
X146550000Y-69820000D01*
X146550000Y-73180000D01*
%TO.C,RA1*%
X133950000Y-64820000D02*
X132050000Y-64820000D01*
X132050000Y-68180000D01*
X133950000Y-68180000D01*
X133950000Y-64820000D01*
%TO.C,C1*%
X147480000Y-73800000D02*
X145520000Y-73800000D01*
X145520000Y-77200000D01*
X147480000Y-77200000D01*
X147480000Y-73800000D01*
%TO.C,D2*%
X148050000Y-77180000D02*
X149950000Y-77180000D01*
X149950000Y-73820000D01*
X148050000Y-73820000D01*
X148050000Y-77180000D01*
%TO.C,U1*%
X144865000Y-78100000D02*
X135135000Y-78100000D01*
X135135000Y-67440000D01*
X144865000Y-67440000D01*
X144865000Y-78100000D01*
%TO.C,J1*%
X136660000Y-64762000D02*
X142750000Y-64762000D01*
X142750000Y-52452000D01*
X136660000Y-52452000D01*
X136660000Y-64762000D01*
%TO.C,C2*%
X134600000Y-72675000D02*
X131400000Y-72675000D01*
X131400000Y-77275000D01*
X134600000Y-77275000D01*
X134600000Y-72675000D01*
%TO.C,RL1*%
X145732500Y-67550000D02*
X149092500Y-67550000D01*
X149092500Y-69450000D01*
X145732500Y-69450000D01*
X145732500Y-67550000D01*
%TO.C,C4*%
X138254000Y-65020000D02*
X141654000Y-65020000D01*
X141654000Y-66980000D01*
X138254000Y-66980000D01*
X138254000Y-65020000D01*
%TD*%
D11*
X131804819Y-76761904D02*
X131804819Y-77333332D01*
X131804819Y-77047618D02*
X130804819Y-77047618D01*
X130804819Y-77047618D02*
X130947676Y-77142856D01*
X130947676Y-77142856D02*
X131042914Y-77238094D01*
X131042914Y-77238094D02*
X131090533Y-77333332D01*
X130804819Y-76142856D02*
X130804819Y-76047618D01*
X130804819Y-76047618D02*
X130852438Y-75952380D01*
X130852438Y-75952380D02*
X130900057Y-75904761D01*
X130900057Y-75904761D02*
X130995295Y-75857142D01*
X130995295Y-75857142D02*
X131185771Y-75809523D01*
X131185771Y-75809523D02*
X131423866Y-75809523D01*
X131423866Y-75809523D02*
X131614342Y-75857142D01*
X131614342Y-75857142D02*
X131709580Y-75904761D01*
X131709580Y-75904761D02*
X131757200Y-75952380D01*
X131757200Y-75952380D02*
X131804819Y-76047618D01*
X131804819Y-76047618D02*
X131804819Y-76142856D01*
X131804819Y-76142856D02*
X131757200Y-76238094D01*
X131757200Y-76238094D02*
X131709580Y-76285713D01*
X131709580Y-76285713D02*
X131614342Y-76333332D01*
X131614342Y-76333332D02*
X131423866Y-76380951D01*
X131423866Y-76380951D02*
X131185771Y-76380951D01*
X131185771Y-76380951D02*
X130995295Y-76333332D01*
X130995295Y-76333332D02*
X130900057Y-76285713D01*
X130900057Y-76285713D02*
X130852438Y-76238094D01*
X130852438Y-76238094D02*
X130804819Y-76142856D01*
X130804819Y-75190475D02*
X130804819Y-75095237D01*
X130804819Y-75095237D02*
X130852438Y-74999999D01*
X130852438Y-74999999D02*
X130900057Y-74952380D01*
X130900057Y-74952380D02*
X130995295Y-74904761D01*
X130995295Y-74904761D02*
X131185771Y-74857142D01*
X131185771Y-74857142D02*
X131423866Y-74857142D01*
X131423866Y-74857142D02*
X131614342Y-74904761D01*
X131614342Y-74904761D02*
X131709580Y-74952380D01*
X131709580Y-74952380D02*
X131757200Y-74999999D01*
X131757200Y-74999999D02*
X131804819Y-75095237D01*
X131804819Y-75095237D02*
X131804819Y-75190475D01*
X131804819Y-75190475D02*
X131757200Y-75285713D01*
X131757200Y-75285713D02*
X131709580Y-75333332D01*
X131709580Y-75333332D02*
X131614342Y-75380951D01*
X131614342Y-75380951D02*
X131423866Y-75428570D01*
X131423866Y-75428570D02*
X131185771Y-75428570D01*
X131185771Y-75428570D02*
X130995295Y-75380951D01*
X130995295Y-75380951D02*
X130900057Y-75333332D01*
X130900057Y-75333332D02*
X130852438Y-75285713D01*
X130852438Y-75285713D02*
X130804819Y-75190475D01*
X131804819Y-74428570D02*
X130804819Y-74428570D01*
X131423866Y-74333332D02*
X131804819Y-74047618D01*
X131138152Y-74047618D02*
X131519104Y-74428570D01*
X130757200Y-72904761D02*
X132042914Y-73761903D01*
X130804819Y-72380951D02*
X130804819Y-72285713D01*
X130804819Y-72285713D02*
X130852438Y-72190475D01*
X130852438Y-72190475D02*
X130900057Y-72142856D01*
X130900057Y-72142856D02*
X130995295Y-72095237D01*
X130995295Y-72095237D02*
X131185771Y-72047618D01*
X131185771Y-72047618D02*
X131423866Y-72047618D01*
X131423866Y-72047618D02*
X131614342Y-72095237D01*
X131614342Y-72095237D02*
X131709580Y-72142856D01*
X131709580Y-72142856D02*
X131757200Y-72190475D01*
X131757200Y-72190475D02*
X131804819Y-72285713D01*
X131804819Y-72285713D02*
X131804819Y-72380951D01*
X131804819Y-72380951D02*
X131757200Y-72476189D01*
X131757200Y-72476189D02*
X131709580Y-72523808D01*
X131709580Y-72523808D02*
X131614342Y-72571427D01*
X131614342Y-72571427D02*
X131423866Y-72619046D01*
X131423866Y-72619046D02*
X131185771Y-72619046D01*
X131185771Y-72619046D02*
X130995295Y-72571427D01*
X130995295Y-72571427D02*
X130900057Y-72523808D01*
X130900057Y-72523808D02*
X130852438Y-72476189D01*
X130852438Y-72476189D02*
X130804819Y-72380951D01*
X131709580Y-71619046D02*
X131757200Y-71571427D01*
X131757200Y-71571427D02*
X131804819Y-71619046D01*
X131804819Y-71619046D02*
X131757200Y-71666665D01*
X131757200Y-71666665D02*
X131709580Y-71619046D01*
X131709580Y-71619046D02*
X131804819Y-71619046D01*
X130900057Y-71190475D02*
X130852438Y-71142856D01*
X130852438Y-71142856D02*
X130804819Y-71047618D01*
X130804819Y-71047618D02*
X130804819Y-70809523D01*
X130804819Y-70809523D02*
X130852438Y-70714285D01*
X130852438Y-70714285D02*
X130900057Y-70666666D01*
X130900057Y-70666666D02*
X130995295Y-70619047D01*
X130995295Y-70619047D02*
X131090533Y-70619047D01*
X131090533Y-70619047D02*
X131233390Y-70666666D01*
X131233390Y-70666666D02*
X131804819Y-71238094D01*
X131804819Y-71238094D02*
X131804819Y-70619047D01*
X130804819Y-69714285D02*
X130804819Y-70190475D01*
X130804819Y-70190475D02*
X131281009Y-70238094D01*
X131281009Y-70238094D02*
X131233390Y-70190475D01*
X131233390Y-70190475D02*
X131185771Y-70095237D01*
X131185771Y-70095237D02*
X131185771Y-69857142D01*
X131185771Y-69857142D02*
X131233390Y-69761904D01*
X131233390Y-69761904D02*
X131281009Y-69714285D01*
X131281009Y-69714285D02*
X131376247Y-69666666D01*
X131376247Y-69666666D02*
X131614342Y-69666666D01*
X131614342Y-69666666D02*
X131709580Y-69714285D01*
X131709580Y-69714285D02*
X131757200Y-69761904D01*
X131757200Y-69761904D02*
X131804819Y-69857142D01*
X131804819Y-69857142D02*
X131804819Y-70095237D01*
X131804819Y-70095237D02*
X131757200Y-70190475D01*
X131757200Y-70190475D02*
X131709580Y-70238094D01*
X130804819Y-69333332D02*
X131804819Y-69095237D01*
X131804819Y-69095237D02*
X131090533Y-68904761D01*
X131090533Y-68904761D02*
X131804819Y-68714285D01*
X131804819Y-68714285D02*
X130804819Y-68476190D01*
X130757200Y-67380952D02*
X132042914Y-68238094D01*
X130804819Y-66857142D02*
X130804819Y-66761904D01*
X130804819Y-66761904D02*
X130852438Y-66666666D01*
X130852438Y-66666666D02*
X130900057Y-66619047D01*
X130900057Y-66619047D02*
X130995295Y-66571428D01*
X130995295Y-66571428D02*
X131185771Y-66523809D01*
X131185771Y-66523809D02*
X131423866Y-66523809D01*
X131423866Y-66523809D02*
X131614342Y-66571428D01*
X131614342Y-66571428D02*
X131709580Y-66619047D01*
X131709580Y-66619047D02*
X131757200Y-66666666D01*
X131757200Y-66666666D02*
X131804819Y-66761904D01*
X131804819Y-66761904D02*
X131804819Y-66857142D01*
X131804819Y-66857142D02*
X131757200Y-66952380D01*
X131757200Y-66952380D02*
X131709580Y-66999999D01*
X131709580Y-66999999D02*
X131614342Y-67047618D01*
X131614342Y-67047618D02*
X131423866Y-67095237D01*
X131423866Y-67095237D02*
X131185771Y-67095237D01*
X131185771Y-67095237D02*
X130995295Y-67047618D01*
X130995295Y-67047618D02*
X130900057Y-66999999D01*
X130900057Y-66999999D02*
X130852438Y-66952380D01*
X130852438Y-66952380D02*
X130804819Y-66857142D01*
X131233390Y-65952380D02*
X131185771Y-66047618D01*
X131185771Y-66047618D02*
X131138152Y-66095237D01*
X131138152Y-66095237D02*
X131042914Y-66142856D01*
X131042914Y-66142856D02*
X130995295Y-66142856D01*
X130995295Y-66142856D02*
X130900057Y-66095237D01*
X130900057Y-66095237D02*
X130852438Y-66047618D01*
X130852438Y-66047618D02*
X130804819Y-65952380D01*
X130804819Y-65952380D02*
X130804819Y-65761904D01*
X130804819Y-65761904D02*
X130852438Y-65666666D01*
X130852438Y-65666666D02*
X130900057Y-65619047D01*
X130900057Y-65619047D02*
X130995295Y-65571428D01*
X130995295Y-65571428D02*
X131042914Y-65571428D01*
X131042914Y-65571428D02*
X131138152Y-65619047D01*
X131138152Y-65619047D02*
X131185771Y-65666666D01*
X131185771Y-65666666D02*
X131233390Y-65761904D01*
X131233390Y-65761904D02*
X131233390Y-65952380D01*
X131233390Y-65952380D02*
X131281009Y-66047618D01*
X131281009Y-66047618D02*
X131328628Y-66095237D01*
X131328628Y-66095237D02*
X131423866Y-66142856D01*
X131423866Y-66142856D02*
X131614342Y-66142856D01*
X131614342Y-66142856D02*
X131709580Y-66095237D01*
X131709580Y-66095237D02*
X131757200Y-66047618D01*
X131757200Y-66047618D02*
X131804819Y-65952380D01*
X131804819Y-65952380D02*
X131804819Y-65761904D01*
X131804819Y-65761904D02*
X131757200Y-65666666D01*
X131757200Y-65666666D02*
X131709580Y-65619047D01*
X131709580Y-65619047D02*
X131614342Y-65571428D01*
X131614342Y-65571428D02*
X131423866Y-65571428D01*
X131423866Y-65571428D02*
X131328628Y-65619047D01*
X131328628Y-65619047D02*
X131281009Y-65666666D01*
X131281009Y-65666666D02*
X131233390Y-65761904D01*
X130804819Y-64952380D02*
X130804819Y-64857142D01*
X130804819Y-64857142D02*
X130852438Y-64761904D01*
X130852438Y-64761904D02*
X130900057Y-64714285D01*
X130900057Y-64714285D02*
X130995295Y-64666666D01*
X130995295Y-64666666D02*
X131185771Y-64619047D01*
X131185771Y-64619047D02*
X131423866Y-64619047D01*
X131423866Y-64619047D02*
X131614342Y-64666666D01*
X131614342Y-64666666D02*
X131709580Y-64714285D01*
X131709580Y-64714285D02*
X131757200Y-64761904D01*
X131757200Y-64761904D02*
X131804819Y-64857142D01*
X131804819Y-64857142D02*
X131804819Y-64952380D01*
X131804819Y-64952380D02*
X131757200Y-65047618D01*
X131757200Y-65047618D02*
X131709580Y-65095237D01*
X131709580Y-65095237D02*
X131614342Y-65142856D01*
X131614342Y-65142856D02*
X131423866Y-65190475D01*
X131423866Y-65190475D02*
X131185771Y-65190475D01*
X131185771Y-65190475D02*
X130995295Y-65142856D01*
X130995295Y-65142856D02*
X130900057Y-65095237D01*
X130900057Y-65095237D02*
X130852438Y-65047618D01*
X130852438Y-65047618D02*
X130804819Y-64952380D01*
X130804819Y-63714285D02*
X130804819Y-64190475D01*
X130804819Y-64190475D02*
X131281009Y-64238094D01*
X131281009Y-64238094D02*
X131233390Y-64190475D01*
X131233390Y-64190475D02*
X131185771Y-64095237D01*
X131185771Y-64095237D02*
X131185771Y-63857142D01*
X131185771Y-63857142D02*
X131233390Y-63761904D01*
X131233390Y-63761904D02*
X131281009Y-63714285D01*
X131281009Y-63714285D02*
X131376247Y-63666666D01*
X131376247Y-63666666D02*
X131614342Y-63666666D01*
X131614342Y-63666666D02*
X131709580Y-63714285D01*
X131709580Y-63714285D02*
X131757200Y-63761904D01*
X131757200Y-63761904D02*
X131804819Y-63857142D01*
X131804819Y-63857142D02*
X131804819Y-64095237D01*
X131804819Y-64095237D02*
X131757200Y-64190475D01*
X131757200Y-64190475D02*
X131709580Y-64238094D01*
D36*
X133227149Y-70833333D02*
X132989054Y-70999999D01*
X133227149Y-71119047D02*
X132727149Y-71119047D01*
X132727149Y-71119047D02*
X132727149Y-70928571D01*
X132727149Y-70928571D02*
X132750959Y-70880952D01*
X132750959Y-70880952D02*
X132774768Y-70857142D01*
X132774768Y-70857142D02*
X132822387Y-70833333D01*
X132822387Y-70833333D02*
X132893816Y-70833333D01*
X132893816Y-70833333D02*
X132941435Y-70857142D01*
X132941435Y-70857142D02*
X132965244Y-70880952D01*
X132965244Y-70880952D02*
X132989054Y-70928571D01*
X132989054Y-70928571D02*
X132989054Y-71119047D01*
X132965244Y-70452380D02*
X132989054Y-70380952D01*
X132989054Y-70380952D02*
X133012863Y-70357142D01*
X133012863Y-70357142D02*
X133060482Y-70333333D01*
X133060482Y-70333333D02*
X133131911Y-70333333D01*
X133131911Y-70333333D02*
X133179530Y-70357142D01*
X133179530Y-70357142D02*
X133203340Y-70380952D01*
X133203340Y-70380952D02*
X133227149Y-70428571D01*
X133227149Y-70428571D02*
X133227149Y-70619047D01*
X133227149Y-70619047D02*
X132727149Y-70619047D01*
X132727149Y-70619047D02*
X132727149Y-70452380D01*
X132727149Y-70452380D02*
X132750959Y-70404761D01*
X132750959Y-70404761D02*
X132774768Y-70380952D01*
X132774768Y-70380952D02*
X132822387Y-70357142D01*
X132822387Y-70357142D02*
X132870006Y-70357142D01*
X132870006Y-70357142D02*
X132917625Y-70380952D01*
X132917625Y-70380952D02*
X132941435Y-70404761D01*
X132941435Y-70404761D02*
X132965244Y-70452380D01*
X132965244Y-70452380D02*
X132965244Y-70619047D01*
X133227149Y-69857142D02*
X133227149Y-70142856D01*
X133227149Y-69999999D02*
X132727149Y-69999999D01*
X132727149Y-69999999D02*
X132798578Y-70047618D01*
X132798578Y-70047618D02*
X132846197Y-70095237D01*
X132846197Y-70095237D02*
X132870006Y-70142856D01*
D11*
X149604819Y-72142857D02*
X149604819Y-72619047D01*
X149604819Y-72619047D02*
X148604819Y-72619047D01*
X149081009Y-71809523D02*
X149081009Y-71476190D01*
X149604819Y-71333333D02*
X149604819Y-71809523D01*
X149604819Y-71809523D02*
X148604819Y-71809523D01*
X148604819Y-71809523D02*
X148604819Y-71333333D01*
X149604819Y-70904761D02*
X148604819Y-70904761D01*
X148604819Y-70904761D02*
X148604819Y-70666666D01*
X148604819Y-70666666D02*
X148652438Y-70523809D01*
X148652438Y-70523809D02*
X148747676Y-70428571D01*
X148747676Y-70428571D02*
X148842914Y-70380952D01*
X148842914Y-70380952D02*
X149033390Y-70333333D01*
X149033390Y-70333333D02*
X149176247Y-70333333D01*
X149176247Y-70333333D02*
X149366723Y-70380952D01*
X149366723Y-70380952D02*
X149461961Y-70428571D01*
X149461961Y-70428571D02*
X149557200Y-70523809D01*
X149557200Y-70523809D02*
X149604819Y-70666666D01*
X149604819Y-70666666D02*
X149604819Y-70904761D01*
D36*
X147727149Y-71869047D02*
X147227149Y-71869047D01*
X147227149Y-71869047D02*
X147227149Y-71749999D01*
X147227149Y-71749999D02*
X147250959Y-71678571D01*
X147250959Y-71678571D02*
X147298578Y-71630952D01*
X147298578Y-71630952D02*
X147346197Y-71607142D01*
X147346197Y-71607142D02*
X147441435Y-71583333D01*
X147441435Y-71583333D02*
X147512863Y-71583333D01*
X147512863Y-71583333D02*
X147608101Y-71607142D01*
X147608101Y-71607142D02*
X147655720Y-71630952D01*
X147655720Y-71630952D02*
X147703340Y-71678571D01*
X147703340Y-71678571D02*
X147727149Y-71749999D01*
X147727149Y-71749999D02*
X147727149Y-71869047D01*
X147727149Y-71107142D02*
X147727149Y-71392856D01*
X147727149Y-71249999D02*
X147227149Y-71249999D01*
X147227149Y-71249999D02*
X147298578Y-71297618D01*
X147298578Y-71297618D02*
X147346197Y-71345237D01*
X147346197Y-71345237D02*
X147370006Y-71392856D01*
D11*
X130900057Y-72857142D02*
X130852438Y-72809523D01*
X130852438Y-72809523D02*
X130804819Y-72714285D01*
X130804819Y-72714285D02*
X130804819Y-72476190D01*
X130804819Y-72476190D02*
X130852438Y-72380952D01*
X130852438Y-72380952D02*
X130900057Y-72333333D01*
X130900057Y-72333333D02*
X130995295Y-72285714D01*
X130995295Y-72285714D02*
X131090533Y-72285714D01*
X131090533Y-72285714D02*
X131233390Y-72333333D01*
X131233390Y-72333333D02*
X131804819Y-72904761D01*
X131804819Y-72904761D02*
X131804819Y-72285714D01*
X130900057Y-71904761D02*
X130852438Y-71857142D01*
X130852438Y-71857142D02*
X130804819Y-71761904D01*
X130804819Y-71761904D02*
X130804819Y-71523809D01*
X130804819Y-71523809D02*
X130852438Y-71428571D01*
X130852438Y-71428571D02*
X130900057Y-71380952D01*
X130900057Y-71380952D02*
X130995295Y-71333333D01*
X130995295Y-71333333D02*
X131090533Y-71333333D01*
X131090533Y-71333333D02*
X131233390Y-71380952D01*
X131233390Y-71380952D02*
X131804819Y-71952380D01*
X131804819Y-71952380D02*
X131804819Y-71333333D01*
X131804819Y-70904761D02*
X130804819Y-70904761D01*
X131423866Y-70809523D02*
X131804819Y-70523809D01*
X131138152Y-70523809D02*
X131519104Y-70904761D01*
X130757200Y-69380952D02*
X132042914Y-70238094D01*
X130804819Y-68857142D02*
X130804819Y-68761904D01*
X130804819Y-68761904D02*
X130852438Y-68666666D01*
X130852438Y-68666666D02*
X130900057Y-68619047D01*
X130900057Y-68619047D02*
X130995295Y-68571428D01*
X130995295Y-68571428D02*
X131185771Y-68523809D01*
X131185771Y-68523809D02*
X131423866Y-68523809D01*
X131423866Y-68523809D02*
X131614342Y-68571428D01*
X131614342Y-68571428D02*
X131709580Y-68619047D01*
X131709580Y-68619047D02*
X131757200Y-68666666D01*
X131757200Y-68666666D02*
X131804819Y-68761904D01*
X131804819Y-68761904D02*
X131804819Y-68857142D01*
X131804819Y-68857142D02*
X131757200Y-68952380D01*
X131757200Y-68952380D02*
X131709580Y-68999999D01*
X131709580Y-68999999D02*
X131614342Y-69047618D01*
X131614342Y-69047618D02*
X131423866Y-69095237D01*
X131423866Y-69095237D02*
X131185771Y-69095237D01*
X131185771Y-69095237D02*
X130995295Y-69047618D01*
X130995295Y-69047618D02*
X130900057Y-68999999D01*
X130900057Y-68999999D02*
X130852438Y-68952380D01*
X130852438Y-68952380D02*
X130804819Y-68857142D01*
X131709580Y-68095237D02*
X131757200Y-68047618D01*
X131757200Y-68047618D02*
X131804819Y-68095237D01*
X131804819Y-68095237D02*
X131757200Y-68142856D01*
X131757200Y-68142856D02*
X131709580Y-68095237D01*
X131709580Y-68095237D02*
X131804819Y-68095237D01*
X130900057Y-67666666D02*
X130852438Y-67619047D01*
X130852438Y-67619047D02*
X130804819Y-67523809D01*
X130804819Y-67523809D02*
X130804819Y-67285714D01*
X130804819Y-67285714D02*
X130852438Y-67190476D01*
X130852438Y-67190476D02*
X130900057Y-67142857D01*
X130900057Y-67142857D02*
X130995295Y-67095238D01*
X130995295Y-67095238D02*
X131090533Y-67095238D01*
X131090533Y-67095238D02*
X131233390Y-67142857D01*
X131233390Y-67142857D02*
X131804819Y-67714285D01*
X131804819Y-67714285D02*
X131804819Y-67095238D01*
X130804819Y-66190476D02*
X130804819Y-66666666D01*
X130804819Y-66666666D02*
X131281009Y-66714285D01*
X131281009Y-66714285D02*
X131233390Y-66666666D01*
X131233390Y-66666666D02*
X131185771Y-66571428D01*
X131185771Y-66571428D02*
X131185771Y-66333333D01*
X131185771Y-66333333D02*
X131233390Y-66238095D01*
X131233390Y-66238095D02*
X131281009Y-66190476D01*
X131281009Y-66190476D02*
X131376247Y-66142857D01*
X131376247Y-66142857D02*
X131614342Y-66142857D01*
X131614342Y-66142857D02*
X131709580Y-66190476D01*
X131709580Y-66190476D02*
X131757200Y-66238095D01*
X131757200Y-66238095D02*
X131804819Y-66333333D01*
X131804819Y-66333333D02*
X131804819Y-66571428D01*
X131804819Y-66571428D02*
X131757200Y-66666666D01*
X131757200Y-66666666D02*
X131709580Y-66714285D01*
X130804819Y-65809523D02*
X131804819Y-65571428D01*
X131804819Y-65571428D02*
X131090533Y-65380952D01*
X131090533Y-65380952D02*
X131804819Y-65190476D01*
X131804819Y-65190476D02*
X130804819Y-64952381D01*
X130757200Y-63857143D02*
X132042914Y-64714285D01*
X130804819Y-63333333D02*
X130804819Y-63238095D01*
X130804819Y-63238095D02*
X130852438Y-63142857D01*
X130852438Y-63142857D02*
X130900057Y-63095238D01*
X130900057Y-63095238D02*
X130995295Y-63047619D01*
X130995295Y-63047619D02*
X131185771Y-63000000D01*
X131185771Y-63000000D02*
X131423866Y-63000000D01*
X131423866Y-63000000D02*
X131614342Y-63047619D01*
X131614342Y-63047619D02*
X131709580Y-63095238D01*
X131709580Y-63095238D02*
X131757200Y-63142857D01*
X131757200Y-63142857D02*
X131804819Y-63238095D01*
X131804819Y-63238095D02*
X131804819Y-63333333D01*
X131804819Y-63333333D02*
X131757200Y-63428571D01*
X131757200Y-63428571D02*
X131709580Y-63476190D01*
X131709580Y-63476190D02*
X131614342Y-63523809D01*
X131614342Y-63523809D02*
X131423866Y-63571428D01*
X131423866Y-63571428D02*
X131185771Y-63571428D01*
X131185771Y-63571428D02*
X130995295Y-63523809D01*
X130995295Y-63523809D02*
X130900057Y-63476190D01*
X130900057Y-63476190D02*
X130852438Y-63428571D01*
X130852438Y-63428571D02*
X130804819Y-63333333D01*
X131233390Y-62428571D02*
X131185771Y-62523809D01*
X131185771Y-62523809D02*
X131138152Y-62571428D01*
X131138152Y-62571428D02*
X131042914Y-62619047D01*
X131042914Y-62619047D02*
X130995295Y-62619047D01*
X130995295Y-62619047D02*
X130900057Y-62571428D01*
X130900057Y-62571428D02*
X130852438Y-62523809D01*
X130852438Y-62523809D02*
X130804819Y-62428571D01*
X130804819Y-62428571D02*
X130804819Y-62238095D01*
X130804819Y-62238095D02*
X130852438Y-62142857D01*
X130852438Y-62142857D02*
X130900057Y-62095238D01*
X130900057Y-62095238D02*
X130995295Y-62047619D01*
X130995295Y-62047619D02*
X131042914Y-62047619D01*
X131042914Y-62047619D02*
X131138152Y-62095238D01*
X131138152Y-62095238D02*
X131185771Y-62142857D01*
X131185771Y-62142857D02*
X131233390Y-62238095D01*
X131233390Y-62238095D02*
X131233390Y-62428571D01*
X131233390Y-62428571D02*
X131281009Y-62523809D01*
X131281009Y-62523809D02*
X131328628Y-62571428D01*
X131328628Y-62571428D02*
X131423866Y-62619047D01*
X131423866Y-62619047D02*
X131614342Y-62619047D01*
X131614342Y-62619047D02*
X131709580Y-62571428D01*
X131709580Y-62571428D02*
X131757200Y-62523809D01*
X131757200Y-62523809D02*
X131804819Y-62428571D01*
X131804819Y-62428571D02*
X131804819Y-62238095D01*
X131804819Y-62238095D02*
X131757200Y-62142857D01*
X131757200Y-62142857D02*
X131709580Y-62095238D01*
X131709580Y-62095238D02*
X131614342Y-62047619D01*
X131614342Y-62047619D02*
X131423866Y-62047619D01*
X131423866Y-62047619D02*
X131328628Y-62095238D01*
X131328628Y-62095238D02*
X131281009Y-62142857D01*
X131281009Y-62142857D02*
X131233390Y-62238095D01*
X130804819Y-61428571D02*
X130804819Y-61333333D01*
X130804819Y-61333333D02*
X130852438Y-61238095D01*
X130852438Y-61238095D02*
X130900057Y-61190476D01*
X130900057Y-61190476D02*
X130995295Y-61142857D01*
X130995295Y-61142857D02*
X131185771Y-61095238D01*
X131185771Y-61095238D02*
X131423866Y-61095238D01*
X131423866Y-61095238D02*
X131614342Y-61142857D01*
X131614342Y-61142857D02*
X131709580Y-61190476D01*
X131709580Y-61190476D02*
X131757200Y-61238095D01*
X131757200Y-61238095D02*
X131804819Y-61333333D01*
X131804819Y-61333333D02*
X131804819Y-61428571D01*
X131804819Y-61428571D02*
X131757200Y-61523809D01*
X131757200Y-61523809D02*
X131709580Y-61571428D01*
X131709580Y-61571428D02*
X131614342Y-61619047D01*
X131614342Y-61619047D02*
X131423866Y-61666666D01*
X131423866Y-61666666D02*
X131185771Y-61666666D01*
X131185771Y-61666666D02*
X130995295Y-61619047D01*
X130995295Y-61619047D02*
X130900057Y-61571428D01*
X130900057Y-61571428D02*
X130852438Y-61523809D01*
X130852438Y-61523809D02*
X130804819Y-61428571D01*
X130804819Y-60190476D02*
X130804819Y-60666666D01*
X130804819Y-60666666D02*
X131281009Y-60714285D01*
X131281009Y-60714285D02*
X131233390Y-60666666D01*
X131233390Y-60666666D02*
X131185771Y-60571428D01*
X131185771Y-60571428D02*
X131185771Y-60333333D01*
X131185771Y-60333333D02*
X131233390Y-60238095D01*
X131233390Y-60238095D02*
X131281009Y-60190476D01*
X131281009Y-60190476D02*
X131376247Y-60142857D01*
X131376247Y-60142857D02*
X131614342Y-60142857D01*
X131614342Y-60142857D02*
X131709580Y-60190476D01*
X131709580Y-60190476D02*
X131757200Y-60238095D01*
X131757200Y-60238095D02*
X131804819Y-60333333D01*
X131804819Y-60333333D02*
X131804819Y-60571428D01*
X131804819Y-60571428D02*
X131757200Y-60666666D01*
X131757200Y-60666666D02*
X131709580Y-60714285D01*
D36*
X133227149Y-66797618D02*
X132989054Y-66964284D01*
X133227149Y-67083332D02*
X132727149Y-67083332D01*
X132727149Y-67083332D02*
X132727149Y-66892856D01*
X132727149Y-66892856D02*
X132750959Y-66845237D01*
X132750959Y-66845237D02*
X132774768Y-66821427D01*
X132774768Y-66821427D02*
X132822387Y-66797618D01*
X132822387Y-66797618D02*
X132893816Y-66797618D01*
X132893816Y-66797618D02*
X132941435Y-66821427D01*
X132941435Y-66821427D02*
X132965244Y-66845237D01*
X132965244Y-66845237D02*
X132989054Y-66892856D01*
X132989054Y-66892856D02*
X132989054Y-67083332D01*
X133084292Y-66607141D02*
X133084292Y-66369046D01*
X133227149Y-66654760D02*
X132727149Y-66488094D01*
X132727149Y-66488094D02*
X133227149Y-66321427D01*
X133227149Y-65892856D02*
X133227149Y-66178570D01*
X133227149Y-66035713D02*
X132727149Y-66035713D01*
X132727149Y-66035713D02*
X132798578Y-66083332D01*
X132798578Y-66083332D02*
X132846197Y-66130951D01*
X132846197Y-66130951D02*
X132870006Y-66178570D01*
D11*
X144274819Y-81952380D02*
X144274819Y-81857142D01*
X144274819Y-81857142D02*
X144322438Y-81761904D01*
X144322438Y-81761904D02*
X144370057Y-81714285D01*
X144370057Y-81714285D02*
X144465295Y-81666666D01*
X144465295Y-81666666D02*
X144655771Y-81619047D01*
X144655771Y-81619047D02*
X144893866Y-81619047D01*
X144893866Y-81619047D02*
X145084342Y-81666666D01*
X145084342Y-81666666D02*
X145179580Y-81714285D01*
X145179580Y-81714285D02*
X145227200Y-81761904D01*
X145227200Y-81761904D02*
X145274819Y-81857142D01*
X145274819Y-81857142D02*
X145274819Y-81952380D01*
X145274819Y-81952380D02*
X145227200Y-82047618D01*
X145227200Y-82047618D02*
X145179580Y-82095237D01*
X145179580Y-82095237D02*
X145084342Y-82142856D01*
X145084342Y-82142856D02*
X144893866Y-82190475D01*
X144893866Y-82190475D02*
X144655771Y-82190475D01*
X144655771Y-82190475D02*
X144465295Y-82142856D01*
X144465295Y-82142856D02*
X144370057Y-82095237D01*
X144370057Y-82095237D02*
X144322438Y-82047618D01*
X144322438Y-82047618D02*
X144274819Y-81952380D01*
X145179580Y-81190475D02*
X145227200Y-81142856D01*
X145227200Y-81142856D02*
X145274819Y-81190475D01*
X145274819Y-81190475D02*
X145227200Y-81238094D01*
X145227200Y-81238094D02*
X145179580Y-81190475D01*
X145179580Y-81190475D02*
X145274819Y-81190475D01*
X144274819Y-80523809D02*
X144274819Y-80428571D01*
X144274819Y-80428571D02*
X144322438Y-80333333D01*
X144322438Y-80333333D02*
X144370057Y-80285714D01*
X144370057Y-80285714D02*
X144465295Y-80238095D01*
X144465295Y-80238095D02*
X144655771Y-80190476D01*
X144655771Y-80190476D02*
X144893866Y-80190476D01*
X144893866Y-80190476D02*
X145084342Y-80238095D01*
X145084342Y-80238095D02*
X145179580Y-80285714D01*
X145179580Y-80285714D02*
X145227200Y-80333333D01*
X145227200Y-80333333D02*
X145274819Y-80428571D01*
X145274819Y-80428571D02*
X145274819Y-80523809D01*
X145274819Y-80523809D02*
X145227200Y-80619047D01*
X145227200Y-80619047D02*
X145179580Y-80666666D01*
X145179580Y-80666666D02*
X145084342Y-80714285D01*
X145084342Y-80714285D02*
X144893866Y-80761904D01*
X144893866Y-80761904D02*
X144655771Y-80761904D01*
X144655771Y-80761904D02*
X144465295Y-80714285D01*
X144465295Y-80714285D02*
X144370057Y-80666666D01*
X144370057Y-80666666D02*
X144322438Y-80619047D01*
X144322438Y-80619047D02*
X144274819Y-80523809D01*
X145274819Y-79238095D02*
X145274819Y-79809523D01*
X145274819Y-79523809D02*
X144274819Y-79523809D01*
X144274819Y-79523809D02*
X144417676Y-79619047D01*
X144417676Y-79619047D02*
X144512914Y-79714285D01*
X144512914Y-79714285D02*
X144560533Y-79809523D01*
X144608152Y-78380952D02*
X145274819Y-78380952D01*
X144608152Y-78809523D02*
X145131961Y-78809523D01*
X145131961Y-78809523D02*
X145227200Y-78761904D01*
X145227200Y-78761904D02*
X145274819Y-78666666D01*
X145274819Y-78666666D02*
X145274819Y-78523809D01*
X145274819Y-78523809D02*
X145227200Y-78428571D01*
X145227200Y-78428571D02*
X145179580Y-78380952D01*
X144751009Y-77571428D02*
X144751009Y-77904761D01*
X145274819Y-77904761D02*
X144274819Y-77904761D01*
X144274819Y-77904761D02*
X144274819Y-77428571D01*
X144227200Y-76333333D02*
X145512914Y-77190475D01*
X144370057Y-76047618D02*
X144322438Y-75999999D01*
X144322438Y-75999999D02*
X144274819Y-75904761D01*
X144274819Y-75904761D02*
X144274819Y-75666666D01*
X144274819Y-75666666D02*
X144322438Y-75571428D01*
X144322438Y-75571428D02*
X144370057Y-75523809D01*
X144370057Y-75523809D02*
X144465295Y-75476190D01*
X144465295Y-75476190D02*
X144560533Y-75476190D01*
X144560533Y-75476190D02*
X144703390Y-75523809D01*
X144703390Y-75523809D02*
X145274819Y-76095237D01*
X145274819Y-76095237D02*
X145274819Y-75476190D01*
X144274819Y-74571428D02*
X144274819Y-75047618D01*
X144274819Y-75047618D02*
X144751009Y-75095237D01*
X144751009Y-75095237D02*
X144703390Y-75047618D01*
X144703390Y-75047618D02*
X144655771Y-74952380D01*
X144655771Y-74952380D02*
X144655771Y-74714285D01*
X144655771Y-74714285D02*
X144703390Y-74619047D01*
X144703390Y-74619047D02*
X144751009Y-74571428D01*
X144751009Y-74571428D02*
X144846247Y-74523809D01*
X144846247Y-74523809D02*
X145084342Y-74523809D01*
X145084342Y-74523809D02*
X145179580Y-74571428D01*
X145179580Y-74571428D02*
X145227200Y-74619047D01*
X145227200Y-74619047D02*
X145274819Y-74714285D01*
X145274819Y-74714285D02*
X145274819Y-74952380D01*
X145274819Y-74952380D02*
X145227200Y-75047618D01*
X145227200Y-75047618D02*
X145179580Y-75095237D01*
X144274819Y-74238094D02*
X145274819Y-73904761D01*
X145274819Y-73904761D02*
X144274819Y-73571428D01*
X144227200Y-72523809D02*
X145512914Y-73380951D01*
X144274819Y-71999999D02*
X144274819Y-71904761D01*
X144274819Y-71904761D02*
X144322438Y-71809523D01*
X144322438Y-71809523D02*
X144370057Y-71761904D01*
X144370057Y-71761904D02*
X144465295Y-71714285D01*
X144465295Y-71714285D02*
X144655771Y-71666666D01*
X144655771Y-71666666D02*
X144893866Y-71666666D01*
X144893866Y-71666666D02*
X145084342Y-71714285D01*
X145084342Y-71714285D02*
X145179580Y-71761904D01*
X145179580Y-71761904D02*
X145227200Y-71809523D01*
X145227200Y-71809523D02*
X145274819Y-71904761D01*
X145274819Y-71904761D02*
X145274819Y-71999999D01*
X145274819Y-71999999D02*
X145227200Y-72095237D01*
X145227200Y-72095237D02*
X145179580Y-72142856D01*
X145179580Y-72142856D02*
X145084342Y-72190475D01*
X145084342Y-72190475D02*
X144893866Y-72238094D01*
X144893866Y-72238094D02*
X144655771Y-72238094D01*
X144655771Y-72238094D02*
X144465295Y-72190475D01*
X144465295Y-72190475D02*
X144370057Y-72142856D01*
X144370057Y-72142856D02*
X144322438Y-72095237D01*
X144322438Y-72095237D02*
X144274819Y-71999999D01*
X144703390Y-71095237D02*
X144655771Y-71190475D01*
X144655771Y-71190475D02*
X144608152Y-71238094D01*
X144608152Y-71238094D02*
X144512914Y-71285713D01*
X144512914Y-71285713D02*
X144465295Y-71285713D01*
X144465295Y-71285713D02*
X144370057Y-71238094D01*
X144370057Y-71238094D02*
X144322438Y-71190475D01*
X144322438Y-71190475D02*
X144274819Y-71095237D01*
X144274819Y-71095237D02*
X144274819Y-70904761D01*
X144274819Y-70904761D02*
X144322438Y-70809523D01*
X144322438Y-70809523D02*
X144370057Y-70761904D01*
X144370057Y-70761904D02*
X144465295Y-70714285D01*
X144465295Y-70714285D02*
X144512914Y-70714285D01*
X144512914Y-70714285D02*
X144608152Y-70761904D01*
X144608152Y-70761904D02*
X144655771Y-70809523D01*
X144655771Y-70809523D02*
X144703390Y-70904761D01*
X144703390Y-70904761D02*
X144703390Y-71095237D01*
X144703390Y-71095237D02*
X144751009Y-71190475D01*
X144751009Y-71190475D02*
X144798628Y-71238094D01*
X144798628Y-71238094D02*
X144893866Y-71285713D01*
X144893866Y-71285713D02*
X145084342Y-71285713D01*
X145084342Y-71285713D02*
X145179580Y-71238094D01*
X145179580Y-71238094D02*
X145227200Y-71190475D01*
X145227200Y-71190475D02*
X145274819Y-71095237D01*
X145274819Y-71095237D02*
X145274819Y-70904761D01*
X145274819Y-70904761D02*
X145227200Y-70809523D01*
X145227200Y-70809523D02*
X145179580Y-70761904D01*
X145179580Y-70761904D02*
X145084342Y-70714285D01*
X145084342Y-70714285D02*
X144893866Y-70714285D01*
X144893866Y-70714285D02*
X144798628Y-70761904D01*
X144798628Y-70761904D02*
X144751009Y-70809523D01*
X144751009Y-70809523D02*
X144703390Y-70904761D01*
X144274819Y-70095237D02*
X144274819Y-69999999D01*
X144274819Y-69999999D02*
X144322438Y-69904761D01*
X144322438Y-69904761D02*
X144370057Y-69857142D01*
X144370057Y-69857142D02*
X144465295Y-69809523D01*
X144465295Y-69809523D02*
X144655771Y-69761904D01*
X144655771Y-69761904D02*
X144893866Y-69761904D01*
X144893866Y-69761904D02*
X145084342Y-69809523D01*
X145084342Y-69809523D02*
X145179580Y-69857142D01*
X145179580Y-69857142D02*
X145227200Y-69904761D01*
X145227200Y-69904761D02*
X145274819Y-69999999D01*
X145274819Y-69999999D02*
X145274819Y-70095237D01*
X145274819Y-70095237D02*
X145227200Y-70190475D01*
X145227200Y-70190475D02*
X145179580Y-70238094D01*
X145179580Y-70238094D02*
X145084342Y-70285713D01*
X145084342Y-70285713D02*
X144893866Y-70333332D01*
X144893866Y-70333332D02*
X144655771Y-70333332D01*
X144655771Y-70333332D02*
X144465295Y-70285713D01*
X144465295Y-70285713D02*
X144370057Y-70238094D01*
X144370057Y-70238094D02*
X144322438Y-70190475D01*
X144322438Y-70190475D02*
X144274819Y-70095237D01*
X144274819Y-68857142D02*
X144274819Y-69333332D01*
X144274819Y-69333332D02*
X144751009Y-69380951D01*
X144751009Y-69380951D02*
X144703390Y-69333332D01*
X144703390Y-69333332D02*
X144655771Y-69238094D01*
X144655771Y-69238094D02*
X144655771Y-68999999D01*
X144655771Y-68999999D02*
X144703390Y-68904761D01*
X144703390Y-68904761D02*
X144751009Y-68857142D01*
X144751009Y-68857142D02*
X144846247Y-68809523D01*
X144846247Y-68809523D02*
X145084342Y-68809523D01*
X145084342Y-68809523D02*
X145179580Y-68857142D01*
X145179580Y-68857142D02*
X145227200Y-68904761D01*
X145227200Y-68904761D02*
X145274819Y-68999999D01*
X145274819Y-68999999D02*
X145274819Y-69238094D01*
X145274819Y-69238094D02*
X145227200Y-69333332D01*
X145227200Y-69333332D02*
X145179580Y-69380951D01*
D36*
X146679530Y-75583333D02*
X146703340Y-75607142D01*
X146703340Y-75607142D02*
X146727149Y-75678571D01*
X146727149Y-75678571D02*
X146727149Y-75726190D01*
X146727149Y-75726190D02*
X146703340Y-75797618D01*
X146703340Y-75797618D02*
X146655720Y-75845237D01*
X146655720Y-75845237D02*
X146608101Y-75869047D01*
X146608101Y-75869047D02*
X146512863Y-75892856D01*
X146512863Y-75892856D02*
X146441435Y-75892856D01*
X146441435Y-75892856D02*
X146346197Y-75869047D01*
X146346197Y-75869047D02*
X146298578Y-75845237D01*
X146298578Y-75845237D02*
X146250959Y-75797618D01*
X146250959Y-75797618D02*
X146227149Y-75726190D01*
X146227149Y-75726190D02*
X146227149Y-75678571D01*
X146227149Y-75678571D02*
X146250959Y-75607142D01*
X146250959Y-75607142D02*
X146274768Y-75583333D01*
X146727149Y-75107142D02*
X146727149Y-75392856D01*
X146727149Y-75249999D02*
X146227149Y-75249999D01*
X146227149Y-75249999D02*
X146298578Y-75297618D01*
X146298578Y-75297618D02*
X146346197Y-75345237D01*
X146346197Y-75345237D02*
X146370006Y-75392856D01*
D11*
X151104819Y-76142857D02*
X151104819Y-76619047D01*
X151104819Y-76619047D02*
X150104819Y-76619047D01*
X150581009Y-75809523D02*
X150581009Y-75476190D01*
X151104819Y-75333333D02*
X151104819Y-75809523D01*
X151104819Y-75809523D02*
X150104819Y-75809523D01*
X150104819Y-75809523D02*
X150104819Y-75333333D01*
X151104819Y-74904761D02*
X150104819Y-74904761D01*
X150104819Y-74904761D02*
X150104819Y-74666666D01*
X150104819Y-74666666D02*
X150152438Y-74523809D01*
X150152438Y-74523809D02*
X150247676Y-74428571D01*
X150247676Y-74428571D02*
X150342914Y-74380952D01*
X150342914Y-74380952D02*
X150533390Y-74333333D01*
X150533390Y-74333333D02*
X150676247Y-74333333D01*
X150676247Y-74333333D02*
X150866723Y-74380952D01*
X150866723Y-74380952D02*
X150961961Y-74428571D01*
X150961961Y-74428571D02*
X151057200Y-74523809D01*
X151057200Y-74523809D02*
X151104819Y-74666666D01*
X151104819Y-74666666D02*
X151104819Y-74904761D01*
D36*
X149227149Y-75869047D02*
X148727149Y-75869047D01*
X148727149Y-75869047D02*
X148727149Y-75749999D01*
X148727149Y-75749999D02*
X148750959Y-75678571D01*
X148750959Y-75678571D02*
X148798578Y-75630952D01*
X148798578Y-75630952D02*
X148846197Y-75607142D01*
X148846197Y-75607142D02*
X148941435Y-75583333D01*
X148941435Y-75583333D02*
X149012863Y-75583333D01*
X149012863Y-75583333D02*
X149108101Y-75607142D01*
X149108101Y-75607142D02*
X149155720Y-75630952D01*
X149155720Y-75630952D02*
X149203340Y-75678571D01*
X149203340Y-75678571D02*
X149227149Y-75749999D01*
X149227149Y-75749999D02*
X149227149Y-75869047D01*
X148774768Y-75392856D02*
X148750959Y-75369047D01*
X148750959Y-75369047D02*
X148727149Y-75321428D01*
X148727149Y-75321428D02*
X148727149Y-75202380D01*
X148727149Y-75202380D02*
X148750959Y-75154761D01*
X148750959Y-75154761D02*
X148774768Y-75130952D01*
X148774768Y-75130952D02*
X148822387Y-75107142D01*
X148822387Y-75107142D02*
X148870006Y-75107142D01*
X148870006Y-75107142D02*
X148941435Y-75130952D01*
X148941435Y-75130952D02*
X149227149Y-75416666D01*
X149227149Y-75416666D02*
X149227149Y-75107142D01*
D11*
X137328333Y-67084819D02*
X137328333Y-66084819D01*
X137328333Y-66084819D02*
X137899761Y-67084819D01*
X137899761Y-67084819D02*
X137899761Y-66084819D01*
X138375952Y-66561009D02*
X138709285Y-66561009D01*
X138852142Y-67084819D02*
X138375952Y-67084819D01*
X138375952Y-67084819D02*
X138375952Y-66084819D01*
X138375952Y-66084819D02*
X138852142Y-66084819D01*
X139756904Y-66084819D02*
X139280714Y-66084819D01*
X139280714Y-66084819D02*
X139233095Y-66561009D01*
X139233095Y-66561009D02*
X139280714Y-66513390D01*
X139280714Y-66513390D02*
X139375952Y-66465771D01*
X139375952Y-66465771D02*
X139614047Y-66465771D01*
X139614047Y-66465771D02*
X139709285Y-66513390D01*
X139709285Y-66513390D02*
X139756904Y-66561009D01*
X139756904Y-66561009D02*
X139804523Y-66656247D01*
X139804523Y-66656247D02*
X139804523Y-66894342D01*
X139804523Y-66894342D02*
X139756904Y-66989580D01*
X139756904Y-66989580D02*
X139709285Y-67037200D01*
X139709285Y-67037200D02*
X139614047Y-67084819D01*
X139614047Y-67084819D02*
X139375952Y-67084819D01*
X139375952Y-67084819D02*
X139280714Y-67037200D01*
X139280714Y-67037200D02*
X139233095Y-66989580D01*
X140709285Y-66084819D02*
X140233095Y-66084819D01*
X140233095Y-66084819D02*
X140185476Y-66561009D01*
X140185476Y-66561009D02*
X140233095Y-66513390D01*
X140233095Y-66513390D02*
X140328333Y-66465771D01*
X140328333Y-66465771D02*
X140566428Y-66465771D01*
X140566428Y-66465771D02*
X140661666Y-66513390D01*
X140661666Y-66513390D02*
X140709285Y-66561009D01*
X140709285Y-66561009D02*
X140756904Y-66656247D01*
X140756904Y-66656247D02*
X140756904Y-66894342D01*
X140756904Y-66894342D02*
X140709285Y-66989580D01*
X140709285Y-66989580D02*
X140661666Y-67037200D01*
X140661666Y-67037200D02*
X140566428Y-67084819D01*
X140566428Y-67084819D02*
X140328333Y-67084819D01*
X140328333Y-67084819D02*
X140233095Y-67037200D01*
X140233095Y-67037200D02*
X140185476Y-66989580D01*
X141661666Y-66084819D02*
X141185476Y-66084819D01*
X141185476Y-66084819D02*
X141137857Y-66561009D01*
X141137857Y-66561009D02*
X141185476Y-66513390D01*
X141185476Y-66513390D02*
X141280714Y-66465771D01*
X141280714Y-66465771D02*
X141518809Y-66465771D01*
X141518809Y-66465771D02*
X141614047Y-66513390D01*
X141614047Y-66513390D02*
X141661666Y-66561009D01*
X141661666Y-66561009D02*
X141709285Y-66656247D01*
X141709285Y-66656247D02*
X141709285Y-66894342D01*
X141709285Y-66894342D02*
X141661666Y-66989580D01*
X141661666Y-66989580D02*
X141614047Y-67037200D01*
X141614047Y-67037200D02*
X141518809Y-67084819D01*
X141518809Y-67084819D02*
X141280714Y-67084819D01*
X141280714Y-67084819D02*
X141185476Y-67037200D01*
X141185476Y-67037200D02*
X141137857Y-66989580D01*
X142137857Y-67084819D02*
X142137857Y-66084819D01*
X142137857Y-66084819D02*
X142518809Y-66084819D01*
X142518809Y-66084819D02*
X142614047Y-66132438D01*
X142614047Y-66132438D02*
X142661666Y-66180057D01*
X142661666Y-66180057D02*
X142709285Y-66275295D01*
X142709285Y-66275295D02*
X142709285Y-66418152D01*
X142709285Y-66418152D02*
X142661666Y-66513390D01*
X142661666Y-66513390D02*
X142614047Y-66561009D01*
X142614047Y-66561009D02*
X142518809Y-66608628D01*
X142518809Y-66608628D02*
X142137857Y-66608628D01*
X139449819Y-73531904D02*
X140259342Y-73531904D01*
X140259342Y-73531904D02*
X140354580Y-73484285D01*
X140354580Y-73484285D02*
X140402200Y-73436666D01*
X140402200Y-73436666D02*
X140449819Y-73341428D01*
X140449819Y-73341428D02*
X140449819Y-73150952D01*
X140449819Y-73150952D02*
X140402200Y-73055714D01*
X140402200Y-73055714D02*
X140354580Y-73008095D01*
X140354580Y-73008095D02*
X140259342Y-72960476D01*
X140259342Y-72960476D02*
X139449819Y-72960476D01*
X140449819Y-71960476D02*
X140449819Y-72531904D01*
X140449819Y-72246190D02*
X139449819Y-72246190D01*
X139449819Y-72246190D02*
X139592676Y-72341428D01*
X139592676Y-72341428D02*
X139687914Y-72436666D01*
X139687914Y-72436666D02*
X139735533Y-72531904D01*
X143599580Y-63916524D02*
X143647200Y-63964143D01*
X143647200Y-63964143D02*
X143694819Y-64107000D01*
X143694819Y-64107000D02*
X143694819Y-64202238D01*
X143694819Y-64202238D02*
X143647200Y-64345095D01*
X143647200Y-64345095D02*
X143551961Y-64440333D01*
X143551961Y-64440333D02*
X143456723Y-64487952D01*
X143456723Y-64487952D02*
X143266247Y-64535571D01*
X143266247Y-64535571D02*
X143123390Y-64535571D01*
X143123390Y-64535571D02*
X142932914Y-64487952D01*
X142932914Y-64487952D02*
X142837676Y-64440333D01*
X142837676Y-64440333D02*
X142742438Y-64345095D01*
X142742438Y-64345095D02*
X142694819Y-64202238D01*
X142694819Y-64202238D02*
X142694819Y-64107000D01*
X142694819Y-64107000D02*
X142742438Y-63964143D01*
X142742438Y-63964143D02*
X142790057Y-63916524D01*
X143694819Y-63345095D02*
X143647200Y-63440333D01*
X143647200Y-63440333D02*
X143599580Y-63487952D01*
X143599580Y-63487952D02*
X143504342Y-63535571D01*
X143504342Y-63535571D02*
X143218628Y-63535571D01*
X143218628Y-63535571D02*
X143123390Y-63487952D01*
X143123390Y-63487952D02*
X143075771Y-63440333D01*
X143075771Y-63440333D02*
X143028152Y-63345095D01*
X143028152Y-63345095D02*
X143028152Y-63202238D01*
X143028152Y-63202238D02*
X143075771Y-63107000D01*
X143075771Y-63107000D02*
X143123390Y-63059381D01*
X143123390Y-63059381D02*
X143218628Y-63011762D01*
X143218628Y-63011762D02*
X143504342Y-63011762D01*
X143504342Y-63011762D02*
X143599580Y-63059381D01*
X143599580Y-63059381D02*
X143647200Y-63107000D01*
X143647200Y-63107000D02*
X143694819Y-63202238D01*
X143694819Y-63202238D02*
X143694819Y-63345095D01*
X143028152Y-62583190D02*
X143694819Y-62583190D01*
X143123390Y-62583190D02*
X143075771Y-62535571D01*
X143075771Y-62535571D02*
X143028152Y-62440333D01*
X143028152Y-62440333D02*
X143028152Y-62297476D01*
X143028152Y-62297476D02*
X143075771Y-62202238D01*
X143075771Y-62202238D02*
X143171009Y-62154619D01*
X143171009Y-62154619D02*
X143694819Y-62154619D01*
X143028152Y-61678428D02*
X143694819Y-61678428D01*
X143123390Y-61678428D02*
X143075771Y-61630809D01*
X143075771Y-61630809D02*
X143028152Y-61535571D01*
X143028152Y-61535571D02*
X143028152Y-61392714D01*
X143028152Y-61392714D02*
X143075771Y-61297476D01*
X143075771Y-61297476D02*
X143171009Y-61249857D01*
X143171009Y-61249857D02*
X143694819Y-61249857D01*
X143790057Y-61011762D02*
X143790057Y-60249857D01*
X142694819Y-59821285D02*
X142694819Y-59726047D01*
X142694819Y-59726047D02*
X142742438Y-59630809D01*
X142742438Y-59630809D02*
X142790057Y-59583190D01*
X142790057Y-59583190D02*
X142885295Y-59535571D01*
X142885295Y-59535571D02*
X143075771Y-59487952D01*
X143075771Y-59487952D02*
X143313866Y-59487952D01*
X143313866Y-59487952D02*
X143504342Y-59535571D01*
X143504342Y-59535571D02*
X143599580Y-59583190D01*
X143599580Y-59583190D02*
X143647200Y-59630809D01*
X143647200Y-59630809D02*
X143694819Y-59726047D01*
X143694819Y-59726047D02*
X143694819Y-59821285D01*
X143694819Y-59821285D02*
X143647200Y-59916523D01*
X143647200Y-59916523D02*
X143599580Y-59964142D01*
X143599580Y-59964142D02*
X143504342Y-60011761D01*
X143504342Y-60011761D02*
X143313866Y-60059380D01*
X143313866Y-60059380D02*
X143075771Y-60059380D01*
X143075771Y-60059380D02*
X142885295Y-60011761D01*
X142885295Y-60011761D02*
X142790057Y-59964142D01*
X142790057Y-59964142D02*
X142742438Y-59916523D01*
X142742438Y-59916523D02*
X142694819Y-59821285D01*
X143694819Y-58535571D02*
X143694819Y-59106999D01*
X143694819Y-58821285D02*
X142694819Y-58821285D01*
X142694819Y-58821285D02*
X142837676Y-58916523D01*
X142837676Y-58916523D02*
X142932914Y-59011761D01*
X142932914Y-59011761D02*
X142980533Y-59106999D01*
X143694819Y-58202237D02*
X143028152Y-57678428D01*
X143028152Y-58202237D02*
X143694819Y-57678428D01*
X142694819Y-57106999D02*
X142694819Y-57011761D01*
X142694819Y-57011761D02*
X142742438Y-56916523D01*
X142742438Y-56916523D02*
X142790057Y-56868904D01*
X142790057Y-56868904D02*
X142885295Y-56821285D01*
X142885295Y-56821285D02*
X143075771Y-56773666D01*
X143075771Y-56773666D02*
X143313866Y-56773666D01*
X143313866Y-56773666D02*
X143504342Y-56821285D01*
X143504342Y-56821285D02*
X143599580Y-56868904D01*
X143599580Y-56868904D02*
X143647200Y-56916523D01*
X143647200Y-56916523D02*
X143694819Y-57011761D01*
X143694819Y-57011761D02*
X143694819Y-57106999D01*
X143694819Y-57106999D02*
X143647200Y-57202237D01*
X143647200Y-57202237D02*
X143599580Y-57249856D01*
X143599580Y-57249856D02*
X143504342Y-57297475D01*
X143504342Y-57297475D02*
X143313866Y-57345094D01*
X143313866Y-57345094D02*
X143075771Y-57345094D01*
X143075771Y-57345094D02*
X142885295Y-57297475D01*
X142885295Y-57297475D02*
X142790057Y-57249856D01*
X142790057Y-57249856D02*
X142742438Y-57202237D01*
X142742438Y-57202237D02*
X142694819Y-57106999D01*
X142790057Y-56392713D02*
X142742438Y-56345094D01*
X142742438Y-56345094D02*
X142694819Y-56249856D01*
X142694819Y-56249856D02*
X142694819Y-56011761D01*
X142694819Y-56011761D02*
X142742438Y-55916523D01*
X142742438Y-55916523D02*
X142790057Y-55868904D01*
X142790057Y-55868904D02*
X142885295Y-55821285D01*
X142885295Y-55821285D02*
X142980533Y-55821285D01*
X142980533Y-55821285D02*
X143123390Y-55868904D01*
X143123390Y-55868904D02*
X143694819Y-56440332D01*
X143694819Y-56440332D02*
X143694819Y-55821285D01*
X143790057Y-55630809D02*
X143790057Y-54868904D01*
X143694819Y-54630808D02*
X142694819Y-54630808D01*
X142694819Y-54630808D02*
X142694819Y-54249856D01*
X142694819Y-54249856D02*
X142742438Y-54154618D01*
X142742438Y-54154618D02*
X142790057Y-54106999D01*
X142790057Y-54106999D02*
X142885295Y-54059380D01*
X142885295Y-54059380D02*
X143028152Y-54059380D01*
X143028152Y-54059380D02*
X143123390Y-54106999D01*
X143123390Y-54106999D02*
X143171009Y-54154618D01*
X143171009Y-54154618D02*
X143218628Y-54249856D01*
X143218628Y-54249856D02*
X143218628Y-54630808D01*
X143694819Y-53630808D02*
X143028152Y-53630808D01*
X142694819Y-53630808D02*
X142742438Y-53678427D01*
X142742438Y-53678427D02*
X142790057Y-53630808D01*
X142790057Y-53630808D02*
X142742438Y-53583189D01*
X142742438Y-53583189D02*
X142694819Y-53630808D01*
X142694819Y-53630808D02*
X142790057Y-53630808D01*
X143028152Y-53154618D02*
X143694819Y-53154618D01*
X143123390Y-53154618D02*
X143075771Y-53106999D01*
X143075771Y-53106999D02*
X143028152Y-53011761D01*
X143028152Y-53011761D02*
X143028152Y-52868904D01*
X143028152Y-52868904D02*
X143075771Y-52773666D01*
X143075771Y-52773666D02*
X143171009Y-52726047D01*
X143171009Y-52726047D02*
X143694819Y-52726047D01*
X139366666Y-59676819D02*
X139366666Y-60391104D01*
X139366666Y-60391104D02*
X139319047Y-60533961D01*
X139319047Y-60533961D02*
X139223809Y-60629200D01*
X139223809Y-60629200D02*
X139080952Y-60676819D01*
X139080952Y-60676819D02*
X138985714Y-60676819D01*
X140366666Y-60676819D02*
X139795238Y-60676819D01*
X140080952Y-60676819D02*
X140080952Y-59676819D01*
X140080952Y-59676819D02*
X139985714Y-59819676D01*
X139985714Y-59819676D02*
X139890476Y-59914914D01*
X139890476Y-59914914D02*
X139795238Y-59962533D01*
X131154819Y-77951190D02*
X131154819Y-78522618D01*
X131154819Y-78236904D02*
X130154819Y-78236904D01*
X130154819Y-78236904D02*
X130297676Y-78332142D01*
X130297676Y-78332142D02*
X130392914Y-78427380D01*
X130392914Y-78427380D02*
X130440533Y-78522618D01*
X130154819Y-77332142D02*
X130154819Y-77236904D01*
X130154819Y-77236904D02*
X130202438Y-77141666D01*
X130202438Y-77141666D02*
X130250057Y-77094047D01*
X130250057Y-77094047D02*
X130345295Y-77046428D01*
X130345295Y-77046428D02*
X130535771Y-76998809D01*
X130535771Y-76998809D02*
X130773866Y-76998809D01*
X130773866Y-76998809D02*
X130964342Y-77046428D01*
X130964342Y-77046428D02*
X131059580Y-77094047D01*
X131059580Y-77094047D02*
X131107200Y-77141666D01*
X131107200Y-77141666D02*
X131154819Y-77236904D01*
X131154819Y-77236904D02*
X131154819Y-77332142D01*
X131154819Y-77332142D02*
X131107200Y-77427380D01*
X131107200Y-77427380D02*
X131059580Y-77474999D01*
X131059580Y-77474999D02*
X130964342Y-77522618D01*
X130964342Y-77522618D02*
X130773866Y-77570237D01*
X130773866Y-77570237D02*
X130535771Y-77570237D01*
X130535771Y-77570237D02*
X130345295Y-77522618D01*
X130345295Y-77522618D02*
X130250057Y-77474999D01*
X130250057Y-77474999D02*
X130202438Y-77427380D01*
X130202438Y-77427380D02*
X130154819Y-77332142D01*
X130488152Y-76141666D02*
X131154819Y-76141666D01*
X130488152Y-76570237D02*
X131011961Y-76570237D01*
X131011961Y-76570237D02*
X131107200Y-76522618D01*
X131107200Y-76522618D02*
X131154819Y-76427380D01*
X131154819Y-76427380D02*
X131154819Y-76284523D01*
X131154819Y-76284523D02*
X131107200Y-76189285D01*
X131107200Y-76189285D02*
X131059580Y-76141666D01*
X130631009Y-75332142D02*
X130631009Y-75665475D01*
X131154819Y-75665475D02*
X130154819Y-75665475D01*
X130154819Y-75665475D02*
X130154819Y-75189285D01*
X130107200Y-74094047D02*
X131392914Y-74951189D01*
X130250057Y-73808332D02*
X130202438Y-73760713D01*
X130202438Y-73760713D02*
X130154819Y-73665475D01*
X130154819Y-73665475D02*
X130154819Y-73427380D01*
X130154819Y-73427380D02*
X130202438Y-73332142D01*
X130202438Y-73332142D02*
X130250057Y-73284523D01*
X130250057Y-73284523D02*
X130345295Y-73236904D01*
X130345295Y-73236904D02*
X130440533Y-73236904D01*
X130440533Y-73236904D02*
X130583390Y-73284523D01*
X130583390Y-73284523D02*
X131154819Y-73855951D01*
X131154819Y-73855951D02*
X131154819Y-73236904D01*
X130154819Y-72332142D02*
X130154819Y-72808332D01*
X130154819Y-72808332D02*
X130631009Y-72855951D01*
X130631009Y-72855951D02*
X130583390Y-72808332D01*
X130583390Y-72808332D02*
X130535771Y-72713094D01*
X130535771Y-72713094D02*
X130535771Y-72474999D01*
X130535771Y-72474999D02*
X130583390Y-72379761D01*
X130583390Y-72379761D02*
X130631009Y-72332142D01*
X130631009Y-72332142D02*
X130726247Y-72284523D01*
X130726247Y-72284523D02*
X130964342Y-72284523D01*
X130964342Y-72284523D02*
X131059580Y-72332142D01*
X131059580Y-72332142D02*
X131107200Y-72379761D01*
X131107200Y-72379761D02*
X131154819Y-72474999D01*
X131154819Y-72474999D02*
X131154819Y-72713094D01*
X131154819Y-72713094D02*
X131107200Y-72808332D01*
X131107200Y-72808332D02*
X131059580Y-72855951D01*
X130154819Y-71998808D02*
X131154819Y-71665475D01*
X131154819Y-71665475D02*
X130154819Y-71332142D01*
D12*
X133287664Y-75108332D02*
X133325760Y-75146428D01*
X133325760Y-75146428D02*
X133363855Y-75260713D01*
X133363855Y-75260713D02*
X133363855Y-75336904D01*
X133363855Y-75336904D02*
X133325760Y-75451190D01*
X133325760Y-75451190D02*
X133249569Y-75527380D01*
X133249569Y-75527380D02*
X133173379Y-75565475D01*
X133173379Y-75565475D02*
X133020998Y-75603571D01*
X133020998Y-75603571D02*
X132906712Y-75603571D01*
X132906712Y-75603571D02*
X132754331Y-75565475D01*
X132754331Y-75565475D02*
X132678140Y-75527380D01*
X132678140Y-75527380D02*
X132601950Y-75451190D01*
X132601950Y-75451190D02*
X132563855Y-75336904D01*
X132563855Y-75336904D02*
X132563855Y-75260713D01*
X132563855Y-75260713D02*
X132601950Y-75146428D01*
X132601950Y-75146428D02*
X132640045Y-75108332D01*
X132640045Y-74803571D02*
X132601950Y-74765475D01*
X132601950Y-74765475D02*
X132563855Y-74689285D01*
X132563855Y-74689285D02*
X132563855Y-74498809D01*
X132563855Y-74498809D02*
X132601950Y-74422618D01*
X132601950Y-74422618D02*
X132640045Y-74384523D01*
X132640045Y-74384523D02*
X132716236Y-74346428D01*
X132716236Y-74346428D02*
X132792426Y-74346428D01*
X132792426Y-74346428D02*
X132906712Y-74384523D01*
X132906712Y-74384523D02*
X133363855Y-74841666D01*
X133363855Y-74841666D02*
X133363855Y-74346428D01*
D11*
X142102976Y-70604819D02*
X141531548Y-70604819D01*
X141817262Y-70604819D02*
X141817262Y-69604819D01*
X141817262Y-69604819D02*
X141722024Y-69747676D01*
X141722024Y-69747676D02*
X141626786Y-69842914D01*
X141626786Y-69842914D02*
X141531548Y-69890533D01*
X142531548Y-70604819D02*
X142531548Y-69604819D01*
X142626786Y-70223866D02*
X142912500Y-70604819D01*
X142912500Y-69938152D02*
X142531548Y-70319104D01*
X144055357Y-69557200D02*
X143198215Y-70842914D01*
X144579167Y-69604819D02*
X144674405Y-69604819D01*
X144674405Y-69604819D02*
X144769643Y-69652438D01*
X144769643Y-69652438D02*
X144817262Y-69700057D01*
X144817262Y-69700057D02*
X144864881Y-69795295D01*
X144864881Y-69795295D02*
X144912500Y-69985771D01*
X144912500Y-69985771D02*
X144912500Y-70223866D01*
X144912500Y-70223866D02*
X144864881Y-70414342D01*
X144864881Y-70414342D02*
X144817262Y-70509580D01*
X144817262Y-70509580D02*
X144769643Y-70557200D01*
X144769643Y-70557200D02*
X144674405Y-70604819D01*
X144674405Y-70604819D02*
X144579167Y-70604819D01*
X144579167Y-70604819D02*
X144483929Y-70557200D01*
X144483929Y-70557200D02*
X144436310Y-70509580D01*
X144436310Y-70509580D02*
X144388691Y-70414342D01*
X144388691Y-70414342D02*
X144341072Y-70223866D01*
X144341072Y-70223866D02*
X144341072Y-69985771D01*
X144341072Y-69985771D02*
X144388691Y-69795295D01*
X144388691Y-69795295D02*
X144436310Y-69700057D01*
X144436310Y-69700057D02*
X144483929Y-69652438D01*
X144483929Y-69652438D02*
X144579167Y-69604819D01*
X145341072Y-70509580D02*
X145388691Y-70557200D01*
X145388691Y-70557200D02*
X145341072Y-70604819D01*
X145341072Y-70604819D02*
X145293453Y-70557200D01*
X145293453Y-70557200D02*
X145341072Y-70509580D01*
X145341072Y-70509580D02*
X145341072Y-70604819D01*
X145769643Y-69700057D02*
X145817262Y-69652438D01*
X145817262Y-69652438D02*
X145912500Y-69604819D01*
X145912500Y-69604819D02*
X146150595Y-69604819D01*
X146150595Y-69604819D02*
X146245833Y-69652438D01*
X146245833Y-69652438D02*
X146293452Y-69700057D01*
X146293452Y-69700057D02*
X146341071Y-69795295D01*
X146341071Y-69795295D02*
X146341071Y-69890533D01*
X146341071Y-69890533D02*
X146293452Y-70033390D01*
X146293452Y-70033390D02*
X145722024Y-70604819D01*
X145722024Y-70604819D02*
X146341071Y-70604819D01*
X147245833Y-69604819D02*
X146769643Y-69604819D01*
X146769643Y-69604819D02*
X146722024Y-70081009D01*
X146722024Y-70081009D02*
X146769643Y-70033390D01*
X146769643Y-70033390D02*
X146864881Y-69985771D01*
X146864881Y-69985771D02*
X147102976Y-69985771D01*
X147102976Y-69985771D02*
X147198214Y-70033390D01*
X147198214Y-70033390D02*
X147245833Y-70081009D01*
X147245833Y-70081009D02*
X147293452Y-70176247D01*
X147293452Y-70176247D02*
X147293452Y-70414342D01*
X147293452Y-70414342D02*
X147245833Y-70509580D01*
X147245833Y-70509580D02*
X147198214Y-70557200D01*
X147198214Y-70557200D02*
X147102976Y-70604819D01*
X147102976Y-70604819D02*
X146864881Y-70604819D01*
X146864881Y-70604819D02*
X146769643Y-70557200D01*
X146769643Y-70557200D02*
X146722024Y-70509580D01*
X147626786Y-69604819D02*
X147864881Y-70604819D01*
X147864881Y-70604819D02*
X148055357Y-69890533D01*
X148055357Y-69890533D02*
X148245833Y-70604819D01*
X148245833Y-70604819D02*
X148483929Y-69604819D01*
X149579166Y-69557200D02*
X148722024Y-70842914D01*
X150102976Y-69604819D02*
X150198214Y-69604819D01*
X150198214Y-69604819D02*
X150293452Y-69652438D01*
X150293452Y-69652438D02*
X150341071Y-69700057D01*
X150341071Y-69700057D02*
X150388690Y-69795295D01*
X150388690Y-69795295D02*
X150436309Y-69985771D01*
X150436309Y-69985771D02*
X150436309Y-70223866D01*
X150436309Y-70223866D02*
X150388690Y-70414342D01*
X150388690Y-70414342D02*
X150341071Y-70509580D01*
X150341071Y-70509580D02*
X150293452Y-70557200D01*
X150293452Y-70557200D02*
X150198214Y-70604819D01*
X150198214Y-70604819D02*
X150102976Y-70604819D01*
X150102976Y-70604819D02*
X150007738Y-70557200D01*
X150007738Y-70557200D02*
X149960119Y-70509580D01*
X149960119Y-70509580D02*
X149912500Y-70414342D01*
X149912500Y-70414342D02*
X149864881Y-70223866D01*
X149864881Y-70223866D02*
X149864881Y-69985771D01*
X149864881Y-69985771D02*
X149912500Y-69795295D01*
X149912500Y-69795295D02*
X149960119Y-69700057D01*
X149960119Y-69700057D02*
X150007738Y-69652438D01*
X150007738Y-69652438D02*
X150102976Y-69604819D01*
X151007738Y-70033390D02*
X150912500Y-69985771D01*
X150912500Y-69985771D02*
X150864881Y-69938152D01*
X150864881Y-69938152D02*
X150817262Y-69842914D01*
X150817262Y-69842914D02*
X150817262Y-69795295D01*
X150817262Y-69795295D02*
X150864881Y-69700057D01*
X150864881Y-69700057D02*
X150912500Y-69652438D01*
X150912500Y-69652438D02*
X151007738Y-69604819D01*
X151007738Y-69604819D02*
X151198214Y-69604819D01*
X151198214Y-69604819D02*
X151293452Y-69652438D01*
X151293452Y-69652438D02*
X151341071Y-69700057D01*
X151341071Y-69700057D02*
X151388690Y-69795295D01*
X151388690Y-69795295D02*
X151388690Y-69842914D01*
X151388690Y-69842914D02*
X151341071Y-69938152D01*
X151341071Y-69938152D02*
X151293452Y-69985771D01*
X151293452Y-69985771D02*
X151198214Y-70033390D01*
X151198214Y-70033390D02*
X151007738Y-70033390D01*
X151007738Y-70033390D02*
X150912500Y-70081009D01*
X150912500Y-70081009D02*
X150864881Y-70128628D01*
X150864881Y-70128628D02*
X150817262Y-70223866D01*
X150817262Y-70223866D02*
X150817262Y-70414342D01*
X150817262Y-70414342D02*
X150864881Y-70509580D01*
X150864881Y-70509580D02*
X150912500Y-70557200D01*
X150912500Y-70557200D02*
X151007738Y-70604819D01*
X151007738Y-70604819D02*
X151198214Y-70604819D01*
X151198214Y-70604819D02*
X151293452Y-70557200D01*
X151293452Y-70557200D02*
X151341071Y-70509580D01*
X151341071Y-70509580D02*
X151388690Y-70414342D01*
X151388690Y-70414342D02*
X151388690Y-70223866D01*
X151388690Y-70223866D02*
X151341071Y-70128628D01*
X151341071Y-70128628D02*
X151293452Y-70081009D01*
X151293452Y-70081009D02*
X151198214Y-70033390D01*
X152007738Y-69604819D02*
X152102976Y-69604819D01*
X152102976Y-69604819D02*
X152198214Y-69652438D01*
X152198214Y-69652438D02*
X152245833Y-69700057D01*
X152245833Y-69700057D02*
X152293452Y-69795295D01*
X152293452Y-69795295D02*
X152341071Y-69985771D01*
X152341071Y-69985771D02*
X152341071Y-70223866D01*
X152341071Y-70223866D02*
X152293452Y-70414342D01*
X152293452Y-70414342D02*
X152245833Y-70509580D01*
X152245833Y-70509580D02*
X152198214Y-70557200D01*
X152198214Y-70557200D02*
X152102976Y-70604819D01*
X152102976Y-70604819D02*
X152007738Y-70604819D01*
X152007738Y-70604819D02*
X151912500Y-70557200D01*
X151912500Y-70557200D02*
X151864881Y-70509580D01*
X151864881Y-70509580D02*
X151817262Y-70414342D01*
X151817262Y-70414342D02*
X151769643Y-70223866D01*
X151769643Y-70223866D02*
X151769643Y-69985771D01*
X151769643Y-69985771D02*
X151817262Y-69795295D01*
X151817262Y-69795295D02*
X151864881Y-69700057D01*
X151864881Y-69700057D02*
X151912500Y-69652438D01*
X151912500Y-69652438D02*
X152007738Y-69604819D01*
X153245833Y-69604819D02*
X152769643Y-69604819D01*
X152769643Y-69604819D02*
X152722024Y-70081009D01*
X152722024Y-70081009D02*
X152769643Y-70033390D01*
X152769643Y-70033390D02*
X152864881Y-69985771D01*
X152864881Y-69985771D02*
X153102976Y-69985771D01*
X153102976Y-69985771D02*
X153198214Y-70033390D01*
X153198214Y-70033390D02*
X153245833Y-70081009D01*
X153245833Y-70081009D02*
X153293452Y-70176247D01*
X153293452Y-70176247D02*
X153293452Y-70414342D01*
X153293452Y-70414342D02*
X153245833Y-70509580D01*
X153245833Y-70509580D02*
X153198214Y-70557200D01*
X153198214Y-70557200D02*
X153102976Y-70604819D01*
X153102976Y-70604819D02*
X152864881Y-70604819D01*
X152864881Y-70604819D02*
X152769643Y-70557200D01*
X152769643Y-70557200D02*
X152722024Y-70509580D01*
D36*
X147126785Y-68727149D02*
X146960119Y-68489054D01*
X146841071Y-68727149D02*
X146841071Y-68227149D01*
X146841071Y-68227149D02*
X147031547Y-68227149D01*
X147031547Y-68227149D02*
X147079166Y-68250959D01*
X147079166Y-68250959D02*
X147102976Y-68274768D01*
X147102976Y-68274768D02*
X147126785Y-68322387D01*
X147126785Y-68322387D02*
X147126785Y-68393816D01*
X147126785Y-68393816D02*
X147102976Y-68441435D01*
X147102976Y-68441435D02*
X147079166Y-68465244D01*
X147079166Y-68465244D02*
X147031547Y-68489054D01*
X147031547Y-68489054D02*
X146841071Y-68489054D01*
X147579166Y-68727149D02*
X147341071Y-68727149D01*
X147341071Y-68727149D02*
X147341071Y-68227149D01*
X148007738Y-68727149D02*
X147722024Y-68727149D01*
X147864881Y-68727149D02*
X147864881Y-68227149D01*
X147864881Y-68227149D02*
X147817262Y-68298578D01*
X147817262Y-68298578D02*
X147769643Y-68346197D01*
X147769643Y-68346197D02*
X147722024Y-68370006D01*
D11*
X135930190Y-67134819D02*
X136025428Y-67134819D01*
X136025428Y-67134819D02*
X136120666Y-67182438D01*
X136120666Y-67182438D02*
X136168285Y-67230057D01*
X136168285Y-67230057D02*
X136215904Y-67325295D01*
X136215904Y-67325295D02*
X136263523Y-67515771D01*
X136263523Y-67515771D02*
X136263523Y-67753866D01*
X136263523Y-67753866D02*
X136215904Y-67944342D01*
X136215904Y-67944342D02*
X136168285Y-68039580D01*
X136168285Y-68039580D02*
X136120666Y-68087200D01*
X136120666Y-68087200D02*
X136025428Y-68134819D01*
X136025428Y-68134819D02*
X135930190Y-68134819D01*
X135930190Y-68134819D02*
X135834952Y-68087200D01*
X135834952Y-68087200D02*
X135787333Y-68039580D01*
X135787333Y-68039580D02*
X135739714Y-67944342D01*
X135739714Y-67944342D02*
X135692095Y-67753866D01*
X135692095Y-67753866D02*
X135692095Y-67515771D01*
X135692095Y-67515771D02*
X135739714Y-67325295D01*
X135739714Y-67325295D02*
X135787333Y-67230057D01*
X135787333Y-67230057D02*
X135834952Y-67182438D01*
X135834952Y-67182438D02*
X135930190Y-67134819D01*
X136692095Y-68039580D02*
X136739714Y-68087200D01*
X136739714Y-68087200D02*
X136692095Y-68134819D01*
X136692095Y-68134819D02*
X136644476Y-68087200D01*
X136644476Y-68087200D02*
X136692095Y-68039580D01*
X136692095Y-68039580D02*
X136692095Y-68134819D01*
X137358761Y-67134819D02*
X137453999Y-67134819D01*
X137453999Y-67134819D02*
X137549237Y-67182438D01*
X137549237Y-67182438D02*
X137596856Y-67230057D01*
X137596856Y-67230057D02*
X137644475Y-67325295D01*
X137644475Y-67325295D02*
X137692094Y-67515771D01*
X137692094Y-67515771D02*
X137692094Y-67753866D01*
X137692094Y-67753866D02*
X137644475Y-67944342D01*
X137644475Y-67944342D02*
X137596856Y-68039580D01*
X137596856Y-68039580D02*
X137549237Y-68087200D01*
X137549237Y-68087200D02*
X137453999Y-68134819D01*
X137453999Y-68134819D02*
X137358761Y-68134819D01*
X137358761Y-68134819D02*
X137263523Y-68087200D01*
X137263523Y-68087200D02*
X137215904Y-68039580D01*
X137215904Y-68039580D02*
X137168285Y-67944342D01*
X137168285Y-67944342D02*
X137120666Y-67753866D01*
X137120666Y-67753866D02*
X137120666Y-67515771D01*
X137120666Y-67515771D02*
X137168285Y-67325295D01*
X137168285Y-67325295D02*
X137215904Y-67230057D01*
X137215904Y-67230057D02*
X137263523Y-67182438D01*
X137263523Y-67182438D02*
X137358761Y-67134819D01*
X138644475Y-68134819D02*
X138073047Y-68134819D01*
X138358761Y-68134819D02*
X138358761Y-67134819D01*
X138358761Y-67134819D02*
X138263523Y-67277676D01*
X138263523Y-67277676D02*
X138168285Y-67372914D01*
X138168285Y-67372914D02*
X138073047Y-67420533D01*
X139501618Y-67468152D02*
X139501618Y-68134819D01*
X139073047Y-67468152D02*
X139073047Y-67991961D01*
X139073047Y-67991961D02*
X139120666Y-68087200D01*
X139120666Y-68087200D02*
X139215904Y-68134819D01*
X139215904Y-68134819D02*
X139358761Y-68134819D01*
X139358761Y-68134819D02*
X139453999Y-68087200D01*
X139453999Y-68087200D02*
X139501618Y-68039580D01*
X140311142Y-67611009D02*
X139977809Y-67611009D01*
X139977809Y-68134819D02*
X139977809Y-67134819D01*
X139977809Y-67134819D02*
X140453999Y-67134819D01*
X141549237Y-67087200D02*
X140692095Y-68372914D01*
X141834952Y-67230057D02*
X141882571Y-67182438D01*
X141882571Y-67182438D02*
X141977809Y-67134819D01*
X141977809Y-67134819D02*
X142215904Y-67134819D01*
X142215904Y-67134819D02*
X142311142Y-67182438D01*
X142311142Y-67182438D02*
X142358761Y-67230057D01*
X142358761Y-67230057D02*
X142406380Y-67325295D01*
X142406380Y-67325295D02*
X142406380Y-67420533D01*
X142406380Y-67420533D02*
X142358761Y-67563390D01*
X142358761Y-67563390D02*
X141787333Y-68134819D01*
X141787333Y-68134819D02*
X142406380Y-68134819D01*
X143311142Y-67134819D02*
X142834952Y-67134819D01*
X142834952Y-67134819D02*
X142787333Y-67611009D01*
X142787333Y-67611009D02*
X142834952Y-67563390D01*
X142834952Y-67563390D02*
X142930190Y-67515771D01*
X142930190Y-67515771D02*
X143168285Y-67515771D01*
X143168285Y-67515771D02*
X143263523Y-67563390D01*
X143263523Y-67563390D02*
X143311142Y-67611009D01*
X143311142Y-67611009D02*
X143358761Y-67706247D01*
X143358761Y-67706247D02*
X143358761Y-67944342D01*
X143358761Y-67944342D02*
X143311142Y-68039580D01*
X143311142Y-68039580D02*
X143263523Y-68087200D01*
X143263523Y-68087200D02*
X143168285Y-68134819D01*
X143168285Y-68134819D02*
X142930190Y-68134819D01*
X142930190Y-68134819D02*
X142834952Y-68087200D01*
X142834952Y-68087200D02*
X142787333Y-68039580D01*
X143644476Y-67134819D02*
X143977809Y-68134819D01*
X143977809Y-68134819D02*
X144311142Y-67134819D01*
D36*
X139870666Y-66179530D02*
X139846857Y-66203340D01*
X139846857Y-66203340D02*
X139775428Y-66227149D01*
X139775428Y-66227149D02*
X139727809Y-66227149D01*
X139727809Y-66227149D02*
X139656381Y-66203340D01*
X139656381Y-66203340D02*
X139608762Y-66155720D01*
X139608762Y-66155720D02*
X139584952Y-66108101D01*
X139584952Y-66108101D02*
X139561143Y-66012863D01*
X139561143Y-66012863D02*
X139561143Y-65941435D01*
X139561143Y-65941435D02*
X139584952Y-65846197D01*
X139584952Y-65846197D02*
X139608762Y-65798578D01*
X139608762Y-65798578D02*
X139656381Y-65750959D01*
X139656381Y-65750959D02*
X139727809Y-65727149D01*
X139727809Y-65727149D02*
X139775428Y-65727149D01*
X139775428Y-65727149D02*
X139846857Y-65750959D01*
X139846857Y-65750959D02*
X139870666Y-65774768D01*
X140299238Y-65893816D02*
X140299238Y-66227149D01*
X140180190Y-65703340D02*
X140061143Y-66060482D01*
X140061143Y-66060482D02*
X140370666Y-66060482D01*
%TO.C,RB1*%
D37*
X133625000Y-69500000D02*
X132375000Y-69500000D01*
X132375000Y-71500000D01*
X133625000Y-71500000D01*
X133625000Y-69500000D01*
%TO.C,D1*%
X146900000Y-70500000D02*
X146900000Y-72200000D01*
X146900000Y-72200000D02*
X147200000Y-72500000D01*
X147200000Y-72500000D02*
X148100000Y-72500000D01*
X148100000Y-70500000D02*
X146900000Y-70500000D01*
X148100000Y-72500000D02*
X148100000Y-70500000D01*
%TO.C,RA1*%
X133625000Y-65500000D02*
X132375000Y-65500000D01*
X132375000Y-67500000D01*
X133625000Y-67500000D01*
X133625000Y-65500000D01*
%TO.C,C1*%
X147125000Y-74500000D02*
X145875000Y-74500000D01*
X145875000Y-76500000D01*
X147125000Y-76500000D01*
X147125000Y-74500000D01*
%TO.C,D2*%
X148400000Y-74500000D02*
X148400000Y-76200000D01*
X148400000Y-76200000D02*
X148700000Y-76500000D01*
X148700000Y-76500000D02*
X149600000Y-76500000D01*
X149600000Y-74500000D02*
X148400000Y-74500000D01*
X149600000Y-76500000D02*
X149600000Y-74500000D01*
%TO.C,U1*%
X136820000Y-67690000D02*
X143170000Y-67690000D01*
X136820000Y-77850000D02*
X136820000Y-67690000D01*
X142170000Y-77850000D02*
X136820000Y-77850000D01*
X143170000Y-67690000D02*
X143170000Y-76850000D01*
X143170000Y-76850000D02*
X142170000Y-77850000D01*
%TO.C,J1*%
X137160000Y-58952000D02*
X142240000Y-58952000D01*
X137160000Y-60857000D02*
X137160000Y-58952000D01*
X137795000Y-61492000D02*
X137160000Y-60857000D01*
X138110000Y-52952000D02*
X138750000Y-52952000D01*
X138110000Y-58952000D02*
X138110000Y-52952000D01*
X138110000Y-63312000D02*
X138110000Y-61492000D01*
X138110000Y-63312000D02*
X138750000Y-63312000D01*
X138750000Y-58952000D02*
X138750000Y-52952000D01*
X138750000Y-63312000D02*
X138750000Y-61492000D01*
X140650000Y-52952000D02*
X141290000Y-52952000D01*
X140650000Y-58952000D02*
X140650000Y-52952000D01*
X140650000Y-63312000D02*
X140650000Y-61492000D01*
X140650000Y-63312000D02*
X141290000Y-63312000D01*
X141290000Y-58952000D02*
X141290000Y-52952000D01*
X141290000Y-63312000D02*
X141290000Y-61492000D01*
X142240000Y-58952000D02*
X142240000Y-61492000D01*
X142240000Y-61492000D02*
X137795000Y-61492000D01*
%TO.C,C2*%
X134250000Y-73375000D02*
X131750000Y-73375000D01*
X131750000Y-76575000D01*
X134250000Y-76575000D01*
X134250000Y-73375000D01*
%TO.C,RL1*%
X146412500Y-67875000D02*
X148412500Y-67875000D01*
X148412500Y-69125000D01*
X146412500Y-69125000D01*
X146412500Y-67875000D01*
%TO.C,C4*%
X138954000Y-65375000D02*
X140954000Y-65375000D01*
X140954000Y-66625000D01*
X138954000Y-66625000D01*
X138954000Y-65375000D01*
%TD*%
M02*
